%TF.GenerationSoftware,KiCad,Pcbnew,(5.1.9)-1*%
%TF.CreationDate,2021-03-20T21:05:45-03:00*%
%TF.ProjectId,boto_arm,626f746f-5f61-4726-9d2e-6b696361645f,rev?*%
%TF.SameCoordinates,Original*%
%TF.FileFunction,Copper,L1,Top*%
%TF.FilePolarity,Positive*%
%FSLAX46Y46*%
G04 Gerber Fmt 4.6, Leading zero omitted, Abs format (unit mm)*
G04 Created by KiCad (PCBNEW (5.1.9)-1) date 2021-03-20 21:05:45*
%MOMM*%
%LPD*%
G01*
G04 APERTURE LIST*
%TA.AperFunction,ComponentPad*%
%ADD10O,1.700000X2.000000*%
%TD*%
%TA.AperFunction,ComponentPad*%
%ADD11R,1.600000X1.600000*%
%TD*%
%TA.AperFunction,ComponentPad*%
%ADD12C,1.600000*%
%TD*%
%TA.AperFunction,ComponentPad*%
%ADD13R,1.700000X1.700000*%
%TD*%
%TA.AperFunction,ComponentPad*%
%ADD14O,1.700000X1.700000*%
%TD*%
%TA.AperFunction,ComponentPad*%
%ADD15O,1.600000X1.600000*%
%TD*%
%TA.AperFunction,ComponentPad*%
%ADD16R,2.000000X1.905000*%
%TD*%
%TA.AperFunction,ComponentPad*%
%ADD17O,2.000000X1.905000*%
%TD*%
%TA.AperFunction,SMDPad,CuDef*%
%ADD18R,1.500000X0.450000*%
%TD*%
%TA.AperFunction,SMDPad,CuDef*%
%ADD19R,3.400000X5.000000*%
%TD*%
%TA.AperFunction,ComponentPad*%
%ADD20C,0.300000*%
%TD*%
%TA.AperFunction,ViaPad*%
%ADD21C,0.800000*%
%TD*%
%TA.AperFunction,Conductor*%
%ADD22C,0.250000*%
%TD*%
%TA.AperFunction,Conductor*%
%ADD23C,0.500000*%
%TD*%
%TA.AperFunction,Conductor*%
%ADD24C,0.254000*%
%TD*%
%TA.AperFunction,Conductor*%
%ADD25C,0.100000*%
%TD*%
G04 APERTURE END LIST*
D10*
%TO.P,J2,2*%
%TO.N,/OUT2*%
X95490000Y-70820000D03*
%TO.P,J2,1*%
%TO.N,/OUT1*%
%TA.AperFunction,ComponentPad*%
G36*
G01*
X92140000Y-71570000D02*
X92140000Y-70070000D01*
G75*
G02*
X92390000Y-69820000I250000J0D01*
G01*
X93590000Y-69820000D01*
G75*
G02*
X93840000Y-70070000I0J-250000D01*
G01*
X93840000Y-71570000D01*
G75*
G02*
X93590000Y-71820000I-250000J0D01*
G01*
X92390000Y-71820000D01*
G75*
G02*
X92140000Y-71570000I0J250000D01*
G01*
G37*
%TD.AperFunction*%
%TD*%
D11*
%TO.P,C1,1*%
%TO.N,/12V*%
X72250000Y-71650000D03*
D12*
%TO.P,C1,2*%
%TO.N,GND*%
X72250000Y-69650000D03*
%TD*%
%TO.P,C2,2*%
%TO.N,GND*%
X72290000Y-75580000D03*
D11*
%TO.P,C2,1*%
%TO.N,/5V*%
X72290000Y-77580000D03*
%TD*%
%TO.P,C3,1*%
%TO.N,/12V*%
X100530000Y-94980000D03*
D12*
%TO.P,C3,2*%
%TO.N,GND*%
X100530000Y-92980000D03*
%TD*%
%TO.P,C4,2*%
%TO.N,/12V*%
X85730000Y-87620000D03*
%TO.P,C4,1*%
%TO.N,GND*%
X85730000Y-85120000D03*
%TD*%
%TO.P,C5,1*%
%TO.N,/12V*%
X96240000Y-89800000D03*
%TO.P,C5,2*%
%TO.N,Net-(C5-Pad2)*%
X93740000Y-89800000D03*
%TD*%
%TO.P,C6,2*%
%TO.N,GND*%
X68050000Y-93950000D03*
%TO.P,C6,1*%
%TO.N,/VPROPI_FILTERED*%
X65550000Y-93950000D03*
%TD*%
%TO.P,C7,1*%
%TO.N,Net-(C7-Pad1)*%
X85560000Y-80380000D03*
%TO.P,C7,2*%
%TO.N,Net-(C7-Pad2)*%
X85560000Y-77880000D03*
%TD*%
D13*
%TO.P,J1,1*%
%TO.N,GND*%
X65180000Y-69960000D03*
D14*
%TO.P,J1,2*%
%TO.N,/SGN*%
X65180000Y-72500000D03*
%TO.P,J1,3*%
%TO.N,/12V*%
X65180000Y-75040000D03*
%TD*%
D12*
%TO.P,R1,1*%
%TO.N,/IPROPI_VOL*%
X83860000Y-94370000D03*
D15*
%TO.P,R1,2*%
%TO.N,GND*%
X91480000Y-94370000D03*
%TD*%
%TO.P,R2,2*%
%TO.N,/IPROPI_VOL*%
X79080000Y-86880000D03*
D12*
%TO.P,R2,1*%
%TO.N,/VPROPI_FILTERED*%
X79080000Y-94500000D03*
%TD*%
D16*
%TO.P,U1,1*%
%TO.N,/12V*%
X80030000Y-75970000D03*
D17*
%TO.P,U1,2*%
%TO.N,GND*%
X80030000Y-73430000D03*
%TO.P,U1,3*%
%TO.N,/5V*%
X80030000Y-70890000D03*
%TD*%
D11*
%TO.P,U2,1*%
%TO.N,/SGN*%
X66560000Y-89620000D03*
D15*
%TO.P,U2,5*%
%TO.N,/IN1*%
X74180000Y-82000000D03*
%TO.P,U2,2*%
%TO.N,/nSLEEP*%
X69100000Y-89620000D03*
%TO.P,U2,6*%
%TO.N,/IN2*%
X71640000Y-82000000D03*
%TO.P,U2,3*%
%TO.N,/VPROPI_FILTERED*%
X71640000Y-89620000D03*
%TO.P,U2,7*%
%TO.N,/nFAULT*%
X69100000Y-82000000D03*
%TO.P,U2,4*%
%TO.N,GND*%
X74180000Y-89620000D03*
%TO.P,U2,8*%
%TO.N,/5V*%
X66560000Y-82000000D03*
%TD*%
D18*
%TO.P,U3,1*%
%TO.N,/IN1*%
X92440000Y-79715000D03*
%TO.P,U3,2*%
%TO.N,/IN2*%
X92440000Y-80365000D03*
%TO.P,U3,3*%
%TO.N,/nSLEEP*%
X92440000Y-81015000D03*
%TO.P,U3,4*%
%TO.N,/nFAULT*%
X92440000Y-81665000D03*
%TO.P,U3,5*%
%TO.N,/5V*%
X92440000Y-82315000D03*
%TO.P,U3,6*%
%TO.N,/IPROPI_VOL*%
X92440000Y-82965000D03*
%TO.P,U3,7*%
%TO.N,GND*%
X92440000Y-83615000D03*
%TO.P,U3,8*%
%TO.N,/OUT1*%
X92440000Y-84265000D03*
%TO.P,U3,9*%
%TO.N,GND*%
X98240000Y-84265000D03*
%TO.P,U3,10*%
%TO.N,/OUT2*%
X98240000Y-83615000D03*
%TO.P,U3,11*%
%TO.N,/12V*%
X98240000Y-82965000D03*
%TO.P,U3,12*%
%TO.N,Net-(C5-Pad2)*%
X98240000Y-82315000D03*
%TO.P,U3,13*%
%TO.N,Net-(C7-Pad2)*%
X98240000Y-81665000D03*
%TO.P,U3,14*%
%TO.N,Net-(C7-Pad1)*%
X98240000Y-81015000D03*
%TO.P,U3,15*%
%TO.N,GND*%
X98240000Y-80365000D03*
%TO.P,U3,16*%
X98240000Y-79715000D03*
D19*
%TO.P,U3,17*%
X95340000Y-81990000D03*
D20*
%TO.P,U3,18*%
%TO.N,N/C*%
X94340000Y-80190000D03*
%TO.P,U3,19*%
X95340000Y-80190000D03*
%TO.P,U3,20*%
X96340000Y-80190000D03*
%TO.P,U3,21*%
X94340000Y-81390000D03*
%TO.P,U3,22*%
X95340000Y-81390000D03*
%TO.P,U3,23*%
X96340000Y-81390000D03*
%TO.P,U3,24*%
X94340000Y-82590000D03*
%TO.P,U3,25*%
X95340000Y-82590000D03*
%TO.P,U3,26*%
X96340000Y-82590000D03*
%TO.P,U3,27*%
X94340000Y-83790000D03*
%TO.P,U3,28*%
X95340000Y-83790000D03*
%TO.P,U3,29*%
X96340000Y-83790000D03*
%TD*%
D21*
%TO.N,/OUT1*%
X90970000Y-85280000D03*
%TO.N,/OUT2*%
X97634300Y-85096000D03*
%TO.N,/nSLEEP*%
X72607200Y-83317600D03*
%TD*%
D22*
%TO.N,/12V*%
X96240000Y-87620000D02*
X96957000Y-87620000D01*
X96957000Y-87620000D02*
X99765600Y-84811400D01*
X99765600Y-84811400D02*
X99765600Y-83415300D01*
X99765600Y-83415300D02*
X99315300Y-82965000D01*
X98240000Y-82965000D02*
X99315300Y-82965000D01*
X96240000Y-87620000D02*
X85730000Y-87620000D01*
X96240000Y-87620000D02*
X96240000Y-89800000D01*
X72250000Y-71650000D02*
X73375300Y-71650000D01*
X80030000Y-75970000D02*
X77695300Y-75970000D01*
X77695300Y-75970000D02*
X73375300Y-71650000D01*
%TO.N,GND*%
X91364700Y-83615000D02*
X89859700Y-85120000D01*
X89859700Y-85120000D02*
X85730000Y-85120000D01*
X71084800Y-69960000D02*
X71084800Y-74374800D01*
X71084800Y-74374800D02*
X72290000Y-75580000D01*
X72250000Y-69650000D02*
X71394800Y-69650000D01*
X71394800Y-69650000D02*
X71084800Y-69960000D01*
X71084800Y-69960000D02*
X66355300Y-69960000D01*
X92440000Y-83615000D02*
X91364700Y-83615000D01*
X94864600Y-82788500D02*
X94587700Y-83065400D01*
X94587700Y-83065400D02*
X94066700Y-83065400D01*
X94066700Y-83065400D02*
X93517100Y-83615000D01*
X93517100Y-83615000D02*
X92440000Y-83615000D01*
X80030000Y-73430000D02*
X76250000Y-69650000D01*
X76250000Y-69650000D02*
X72250000Y-69650000D01*
X74180000Y-89620000D02*
X73054700Y-89620000D01*
X73054700Y-89620000D02*
X73054700Y-89901300D01*
X73054700Y-89901300D02*
X69006000Y-93950000D01*
X69006000Y-93950000D02*
X68050000Y-93950000D01*
X74180000Y-89620000D02*
X81230000Y-89620000D01*
X81230000Y-89620000D02*
X83322800Y-87527200D01*
X98240000Y-79715000D02*
X98240000Y-80365000D01*
X95340000Y-81990000D02*
X95412400Y-81990000D01*
X95412400Y-81990000D02*
X95815400Y-81587000D01*
X95815400Y-81587000D02*
X95815400Y-81191600D01*
X95815400Y-81191600D02*
X96092400Y-80914600D01*
X96092400Y-80914600D02*
X96490400Y-80914600D01*
X96490400Y-80914600D02*
X97040000Y-80365000D01*
X97040000Y-80365000D02*
X98240000Y-80365000D01*
X94864600Y-82788500D02*
X94864600Y-82393100D01*
X94864600Y-82393100D02*
X95267700Y-81990000D01*
X95267700Y-81990000D02*
X95340000Y-81990000D01*
X94864600Y-82788500D02*
X95266100Y-83190000D01*
X95266100Y-83190000D02*
X96414500Y-83190000D01*
X96414500Y-83190000D02*
X97164700Y-83940200D01*
X97164700Y-83940200D02*
X97164700Y-84265000D01*
X98240000Y-84265000D02*
X97164700Y-84265000D01*
X83322800Y-87527200D02*
X85730000Y-85120000D01*
X83322800Y-87527200D02*
X90165600Y-94370000D01*
X90165600Y-94370000D02*
X91480000Y-94370000D01*
X65180000Y-69960000D02*
X66355300Y-69960000D01*
X91480000Y-94370000D02*
X92605300Y-94370000D01*
X92605300Y-94370000D02*
X93995300Y-92980000D01*
X93995300Y-92980000D02*
X100530000Y-92980000D01*
%TO.N,/5V*%
X91364700Y-82315000D02*
X90229400Y-83450300D01*
X90229400Y-83450300D02*
X82238400Y-83450300D01*
X82238400Y-83450300D02*
X81191800Y-84496900D01*
X81191800Y-84496900D02*
X69900900Y-84496900D01*
X69900900Y-84496900D02*
X67685300Y-82281300D01*
X67685300Y-82281300D02*
X67685300Y-82000000D01*
X72290000Y-77580000D02*
X71164700Y-77580000D01*
X67122700Y-82000000D02*
X71164700Y-77958000D01*
X71164700Y-77958000D02*
X71164700Y-77580000D01*
X67122700Y-82000000D02*
X67685300Y-82000000D01*
X66560000Y-82000000D02*
X67122700Y-82000000D01*
X92440000Y-82315000D02*
X91364700Y-82315000D01*
%TO.N,Net-(C5-Pad2)*%
X93740000Y-89800000D02*
X94877000Y-90937000D01*
X94877000Y-90937000D02*
X96747400Y-90937000D01*
X96747400Y-90937000D02*
X100215900Y-87468500D01*
X100215900Y-87468500D02*
X100215900Y-83215600D01*
X100215900Y-83215600D02*
X99315300Y-82315000D01*
X98240000Y-82315000D02*
X99315300Y-82315000D01*
%TO.N,/VPROPI_FILTERED*%
X71640000Y-89620000D02*
X70514700Y-89620000D01*
X70514700Y-89620000D02*
X70514700Y-89901400D01*
X70514700Y-89901400D02*
X69670800Y-90745300D01*
X69670800Y-90745300D02*
X68754700Y-90745300D01*
X68754700Y-90745300D02*
X65550000Y-93950000D01*
%TO.N,Net-(C7-Pad1)*%
X98240000Y-81015000D02*
X99315300Y-81015000D01*
X99315300Y-81015000D02*
X99315300Y-79343900D01*
X99315300Y-79343900D02*
X99136000Y-79164600D01*
X99136000Y-79164600D02*
X86775400Y-79164600D01*
X86775400Y-79164600D02*
X85560000Y-80380000D01*
%TO.N,Net-(C7-Pad2)*%
X99315300Y-81665000D02*
X99790400Y-81189900D01*
X99790400Y-81189900D02*
X99790400Y-79088600D01*
X99790400Y-79088600D02*
X98581800Y-77880000D01*
X98581800Y-77880000D02*
X85560000Y-77880000D01*
X98240000Y-81665000D02*
X99315300Y-81665000D01*
%TO.N,/OUT1*%
X92440000Y-84265000D02*
X91985000Y-84265000D01*
X91985000Y-84265000D02*
X90970000Y-85280000D01*
X90970000Y-85280000D02*
X90950000Y-85300000D01*
D23*
X91959999Y-84290001D02*
X92440000Y-84290001D01*
X90970000Y-85280000D02*
X91959999Y-84290001D01*
D22*
%TO.N,/OUT2*%
X98240000Y-83615000D02*
X99315300Y-83615000D01*
X99315300Y-83615000D02*
X99315300Y-84624800D01*
X99315300Y-84624800D02*
X98844100Y-85096000D01*
X98844100Y-85096000D02*
X97634300Y-85096000D01*
%TO.N,/IPROPI_VOL*%
X91364700Y-82965000D02*
X90429100Y-83900600D01*
X90429100Y-83900600D02*
X83184700Y-83900600D01*
X83184700Y-83900600D02*
X80205300Y-86880000D01*
X92440000Y-82965000D02*
X91364700Y-82965000D01*
X79080000Y-86880000D02*
X80205300Y-86880000D01*
%TO.N,/IN1*%
X75305300Y-82000000D02*
X75656200Y-81649100D01*
X75656200Y-81649100D02*
X86358300Y-81649100D01*
X86358300Y-81649100D02*
X88292400Y-79715000D01*
X88292400Y-79715000D02*
X92440000Y-79715000D01*
X74180000Y-82000000D02*
X75305300Y-82000000D01*
%TO.N,/nSLEEP*%
X72607200Y-83317600D02*
X72885900Y-83596300D01*
X72885900Y-83596300D02*
X80818600Y-83596300D01*
X80818600Y-83596300D02*
X81865200Y-82549700D01*
X81865200Y-82549700D02*
X86986500Y-82549700D01*
X86986500Y-82549700D02*
X88521200Y-81015000D01*
X88521200Y-81015000D02*
X92440000Y-81015000D01*
%TO.N,/IN2*%
X72765300Y-82000000D02*
X72765300Y-82203200D01*
X72765300Y-82203200D02*
X73708100Y-83146000D01*
X73708100Y-83146000D02*
X80632000Y-83146000D01*
X80632000Y-83146000D02*
X81678600Y-82099400D01*
X81678600Y-82099400D02*
X86705800Y-82099400D01*
X86705800Y-82099400D02*
X88440200Y-80365000D01*
X88440200Y-80365000D02*
X91364700Y-80365000D01*
X92440000Y-80365000D02*
X91364700Y-80365000D01*
X71640000Y-82000000D02*
X72765300Y-82000000D01*
%TO.N,/nFAULT*%
X70225300Y-82000000D02*
X70225300Y-82281400D01*
X70225300Y-82281400D02*
X71990500Y-84046600D01*
X71990500Y-84046600D02*
X81005200Y-84046600D01*
X81005200Y-84046600D02*
X82051800Y-83000000D01*
X82051800Y-83000000D02*
X87173100Y-83000000D01*
X87173100Y-83000000D02*
X88508100Y-81665000D01*
X88508100Y-81665000D02*
X92440000Y-81665000D01*
X69100000Y-82000000D02*
X70225300Y-82000000D01*
%TD*%
D24*
%TO.N,GND*%
X99907808Y-68003434D02*
X99758761Y-68363265D01*
X99682777Y-68745261D01*
X99682777Y-69134739D01*
X99758761Y-69516735D01*
X99907808Y-69876566D01*
X100124191Y-70200406D01*
X100399594Y-70475809D01*
X100723434Y-70692192D01*
X101083265Y-70841239D01*
X101465261Y-70917223D01*
X101854739Y-70917223D01*
X102236735Y-70841239D01*
X102571371Y-70702628D01*
X102680000Y-70727351D01*
X102680001Y-98240000D01*
X65936242Y-98240000D01*
X66081239Y-97889946D01*
X66157223Y-97507950D01*
X66157223Y-97118472D01*
X66081239Y-96736476D01*
X65932192Y-96376645D01*
X65715809Y-96052805D01*
X65589219Y-95926215D01*
X65579939Y-95911635D01*
X65562731Y-95893643D01*
X65542396Y-95879392D01*
X65440406Y-95777402D01*
X65116566Y-95561019D01*
X64756735Y-95411972D01*
X64374739Y-95335988D01*
X63985261Y-95335988D01*
X63603265Y-95411972D01*
X63351053Y-95516442D01*
X63322240Y-93808665D01*
X64115000Y-93808665D01*
X64115000Y-94091335D01*
X64170147Y-94368574D01*
X64278320Y-94629727D01*
X64435363Y-94864759D01*
X64635241Y-95064637D01*
X64870273Y-95221680D01*
X65131426Y-95329853D01*
X65408665Y-95385000D01*
X65691335Y-95385000D01*
X65968574Y-95329853D01*
X66229727Y-95221680D01*
X66464759Y-95064637D01*
X66586694Y-94942702D01*
X67236903Y-94942702D01*
X67308486Y-95186671D01*
X67563996Y-95307571D01*
X67838184Y-95376300D01*
X68120512Y-95390217D01*
X68400130Y-95348787D01*
X68666292Y-95253603D01*
X68791514Y-95186671D01*
X68863097Y-94942702D01*
X68050000Y-94129605D01*
X67236903Y-94942702D01*
X66586694Y-94942702D01*
X66664637Y-94864759D01*
X66798692Y-94664131D01*
X66813329Y-94691514D01*
X67057298Y-94763097D01*
X67870395Y-93950000D01*
X68229605Y-93950000D01*
X69042702Y-94763097D01*
X69286671Y-94691514D01*
X69407571Y-94436004D01*
X69426957Y-94358665D01*
X77645000Y-94358665D01*
X77645000Y-94641335D01*
X77700147Y-94918574D01*
X77808320Y-95179727D01*
X77965363Y-95414759D01*
X78165241Y-95614637D01*
X78400273Y-95771680D01*
X78661426Y-95879853D01*
X78938665Y-95935000D01*
X79221335Y-95935000D01*
X79498574Y-95879853D01*
X79759727Y-95771680D01*
X79994759Y-95614637D01*
X80194637Y-95414759D01*
X80351680Y-95179727D01*
X80459853Y-94918574D01*
X80515000Y-94641335D01*
X80515000Y-94358665D01*
X80489142Y-94228665D01*
X82425000Y-94228665D01*
X82425000Y-94511335D01*
X82480147Y-94788574D01*
X82588320Y-95049727D01*
X82745363Y-95284759D01*
X82945241Y-95484637D01*
X83180273Y-95641680D01*
X83441426Y-95749853D01*
X83718665Y-95805000D01*
X84001335Y-95805000D01*
X84278574Y-95749853D01*
X84539727Y-95641680D01*
X84774759Y-95484637D01*
X84974637Y-95284759D01*
X85131680Y-95049727D01*
X85239853Y-94788574D01*
X85253684Y-94719039D01*
X90088096Y-94719039D01*
X90128754Y-94853087D01*
X90248963Y-95107420D01*
X90416481Y-95333414D01*
X90624869Y-95522385D01*
X90866119Y-95667070D01*
X91130960Y-95761909D01*
X91353000Y-95640624D01*
X91353000Y-94497000D01*
X91607000Y-94497000D01*
X91607000Y-95640624D01*
X91829040Y-95761909D01*
X92093881Y-95667070D01*
X92335131Y-95522385D01*
X92543519Y-95333414D01*
X92711037Y-95107420D01*
X92831246Y-94853087D01*
X92871904Y-94719039D01*
X92749915Y-94497000D01*
X91607000Y-94497000D01*
X91353000Y-94497000D01*
X90210085Y-94497000D01*
X90088096Y-94719039D01*
X85253684Y-94719039D01*
X85295000Y-94511335D01*
X85295000Y-94228665D01*
X85253685Y-94020961D01*
X90088096Y-94020961D01*
X90210085Y-94243000D01*
X91353000Y-94243000D01*
X91353000Y-93099376D01*
X91607000Y-93099376D01*
X91607000Y-94243000D01*
X92749915Y-94243000D01*
X92871904Y-94020961D01*
X92831246Y-93886913D01*
X92711037Y-93632580D01*
X92543519Y-93406586D01*
X92335131Y-93217615D01*
X92093881Y-93072930D01*
X92031279Y-93050512D01*
X99089783Y-93050512D01*
X99131213Y-93330130D01*
X99226397Y-93596292D01*
X99291616Y-93718309D01*
X99278815Y-93728815D01*
X99199463Y-93825506D01*
X99140498Y-93935820D01*
X99104188Y-94055518D01*
X99091928Y-94180000D01*
X99091928Y-95780000D01*
X99104188Y-95904482D01*
X99140498Y-96024180D01*
X99199463Y-96134494D01*
X99278815Y-96231185D01*
X99375506Y-96310537D01*
X99485820Y-96369502D01*
X99605518Y-96405812D01*
X99730000Y-96418072D01*
X101330000Y-96418072D01*
X101454482Y-96405812D01*
X101574180Y-96369502D01*
X101684494Y-96310537D01*
X101781185Y-96231185D01*
X101860537Y-96134494D01*
X101919502Y-96024180D01*
X101955812Y-95904482D01*
X101968072Y-95780000D01*
X101968072Y-94180000D01*
X101955812Y-94055518D01*
X101919502Y-93935820D01*
X101860537Y-93825506D01*
X101781185Y-93728815D01*
X101768242Y-93718193D01*
X101887571Y-93466004D01*
X101956300Y-93191816D01*
X101970217Y-92909488D01*
X101928787Y-92629870D01*
X101833603Y-92363708D01*
X101766671Y-92238486D01*
X101522702Y-92166903D01*
X100709605Y-92980000D01*
X100723748Y-92994143D01*
X100544143Y-93173748D01*
X100530000Y-93159605D01*
X100515858Y-93173748D01*
X100336253Y-92994143D01*
X100350395Y-92980000D01*
X99537298Y-92166903D01*
X99293329Y-92238486D01*
X99172429Y-92493996D01*
X99103700Y-92768184D01*
X99089783Y-93050512D01*
X92031279Y-93050512D01*
X91829040Y-92978091D01*
X91607000Y-93099376D01*
X91353000Y-93099376D01*
X91130960Y-92978091D01*
X90866119Y-93072930D01*
X90624869Y-93217615D01*
X90416481Y-93406586D01*
X90248963Y-93632580D01*
X90128754Y-93886913D01*
X90088096Y-94020961D01*
X85253685Y-94020961D01*
X85239853Y-93951426D01*
X85131680Y-93690273D01*
X84974637Y-93455241D01*
X84774759Y-93255363D01*
X84539727Y-93098320D01*
X84278574Y-92990147D01*
X84001335Y-92935000D01*
X83718665Y-92935000D01*
X83441426Y-92990147D01*
X83180273Y-93098320D01*
X82945241Y-93255363D01*
X82745363Y-93455241D01*
X82588320Y-93690273D01*
X82480147Y-93951426D01*
X82425000Y-94228665D01*
X80489142Y-94228665D01*
X80459853Y-94081426D01*
X80351680Y-93820273D01*
X80194637Y-93585241D01*
X79994759Y-93385363D01*
X79759727Y-93228320D01*
X79498574Y-93120147D01*
X79221335Y-93065000D01*
X78938665Y-93065000D01*
X78661426Y-93120147D01*
X78400273Y-93228320D01*
X78165241Y-93385363D01*
X77965363Y-93585241D01*
X77808320Y-93820273D01*
X77700147Y-94081426D01*
X77645000Y-94358665D01*
X69426957Y-94358665D01*
X69476300Y-94161816D01*
X69490217Y-93879488D01*
X69448787Y-93599870D01*
X69353603Y-93333708D01*
X69286671Y-93208486D01*
X69042702Y-93136903D01*
X68229605Y-93950000D01*
X67870395Y-93950000D01*
X67856253Y-93935858D01*
X68035858Y-93756253D01*
X68050000Y-93770395D01*
X68863097Y-92957298D01*
X68791514Y-92713329D01*
X68536004Y-92592429D01*
X68261816Y-92523700D01*
X68061001Y-92513801D01*
X68587504Y-91987298D01*
X99716903Y-91987298D01*
X100530000Y-92800395D01*
X101343097Y-91987298D01*
X101271514Y-91743329D01*
X101016004Y-91622429D01*
X100741816Y-91553700D01*
X100459488Y-91539783D01*
X100179870Y-91581213D01*
X99913708Y-91676397D01*
X99788486Y-91743329D01*
X99716903Y-91987298D01*
X68587504Y-91987298D01*
X69069502Y-91505300D01*
X69633478Y-91505300D01*
X69670800Y-91508976D01*
X69708122Y-91505300D01*
X69708133Y-91505300D01*
X69819786Y-91494303D01*
X69963047Y-91450846D01*
X70095076Y-91380274D01*
X70210801Y-91285301D01*
X70234603Y-91256298D01*
X70743838Y-90747063D01*
X70960273Y-90891680D01*
X71221426Y-90999853D01*
X71498665Y-91055000D01*
X71781335Y-91055000D01*
X72058574Y-90999853D01*
X72319727Y-90891680D01*
X72554759Y-90734637D01*
X72754637Y-90534759D01*
X72911680Y-90299727D01*
X72916067Y-90289135D01*
X73027615Y-90475131D01*
X73216586Y-90683519D01*
X73442580Y-90851037D01*
X73696913Y-90971246D01*
X73830961Y-91011904D01*
X74053000Y-90889915D01*
X74053000Y-89747000D01*
X74307000Y-89747000D01*
X74307000Y-90889915D01*
X74529039Y-91011904D01*
X74663087Y-90971246D01*
X74917420Y-90851037D01*
X75143414Y-90683519D01*
X75332385Y-90475131D01*
X75477070Y-90233881D01*
X75571909Y-89969040D01*
X75450624Y-89747000D01*
X74307000Y-89747000D01*
X74053000Y-89747000D01*
X74033000Y-89747000D01*
X74033000Y-89493000D01*
X74053000Y-89493000D01*
X74053000Y-88350085D01*
X74307000Y-88350085D01*
X74307000Y-89493000D01*
X75450624Y-89493000D01*
X75571909Y-89270960D01*
X75477070Y-89006119D01*
X75332385Y-88764869D01*
X75143414Y-88556481D01*
X74917420Y-88388963D01*
X74663087Y-88268754D01*
X74529039Y-88228096D01*
X74307000Y-88350085D01*
X74053000Y-88350085D01*
X73830961Y-88228096D01*
X73696913Y-88268754D01*
X73442580Y-88388963D01*
X73216586Y-88556481D01*
X73027615Y-88764869D01*
X72916067Y-88950865D01*
X72911680Y-88940273D01*
X72754637Y-88705241D01*
X72554759Y-88505363D01*
X72319727Y-88348320D01*
X72058574Y-88240147D01*
X71781335Y-88185000D01*
X71498665Y-88185000D01*
X71221426Y-88240147D01*
X70960273Y-88348320D01*
X70725241Y-88505363D01*
X70525363Y-88705241D01*
X70418053Y-88865842D01*
X70365714Y-88870997D01*
X70332187Y-88881167D01*
X70214637Y-88705241D01*
X70014759Y-88505363D01*
X69779727Y-88348320D01*
X69518574Y-88240147D01*
X69241335Y-88185000D01*
X68958665Y-88185000D01*
X68681426Y-88240147D01*
X68420273Y-88348320D01*
X68185241Y-88505363D01*
X67986643Y-88703961D01*
X67985812Y-88695518D01*
X67949502Y-88575820D01*
X67890537Y-88465506D01*
X67811185Y-88368815D01*
X67714494Y-88289463D01*
X67604180Y-88230498D01*
X67484482Y-88194188D01*
X67360000Y-88181928D01*
X65760000Y-88181928D01*
X65635518Y-88194188D01*
X65515820Y-88230498D01*
X65405506Y-88289463D01*
X65308815Y-88368815D01*
X65229463Y-88465506D01*
X65170498Y-88575820D01*
X65134188Y-88695518D01*
X65121928Y-88820000D01*
X65121928Y-90420000D01*
X65134188Y-90544482D01*
X65170498Y-90664180D01*
X65229463Y-90774494D01*
X65308815Y-90871185D01*
X65405506Y-90950537D01*
X65515820Y-91009502D01*
X65635518Y-91045812D01*
X65760000Y-91058072D01*
X67360000Y-91058072D01*
X67367905Y-91057293D01*
X65873886Y-92551312D01*
X65691335Y-92515000D01*
X65408665Y-92515000D01*
X65131426Y-92570147D01*
X64870273Y-92678320D01*
X64635241Y-92835363D01*
X64435363Y-93035241D01*
X64278320Y-93270273D01*
X64170147Y-93531426D01*
X64115000Y-93808665D01*
X63322240Y-93808665D01*
X63120624Y-81858665D01*
X65125000Y-81858665D01*
X65125000Y-82141335D01*
X65180147Y-82418574D01*
X65288320Y-82679727D01*
X65445363Y-82914759D01*
X65645241Y-83114637D01*
X65880273Y-83271680D01*
X66141426Y-83379853D01*
X66418665Y-83435000D01*
X66701335Y-83435000D01*
X66978574Y-83379853D01*
X67239727Y-83271680D01*
X67456222Y-83127023D01*
X69337101Y-85007903D01*
X69360899Y-85036901D01*
X69417152Y-85083067D01*
X69476624Y-85131874D01*
X69608653Y-85202446D01*
X69751914Y-85245903D01*
X69900900Y-85260577D01*
X69938233Y-85256900D01*
X80753599Y-85256900D01*
X80119947Y-85890551D01*
X79994759Y-85765363D01*
X79759727Y-85608320D01*
X79498574Y-85500147D01*
X79221335Y-85445000D01*
X78938665Y-85445000D01*
X78661426Y-85500147D01*
X78400273Y-85608320D01*
X78165241Y-85765363D01*
X77965363Y-85965241D01*
X77808320Y-86200273D01*
X77700147Y-86461426D01*
X77645000Y-86738665D01*
X77645000Y-87021335D01*
X77700147Y-87298574D01*
X77808320Y-87559727D01*
X77965363Y-87794759D01*
X78165241Y-87994637D01*
X78400273Y-88151680D01*
X78661426Y-88259853D01*
X78938665Y-88315000D01*
X79221335Y-88315000D01*
X79498574Y-88259853D01*
X79759727Y-88151680D01*
X79994759Y-87994637D01*
X80194637Y-87794759D01*
X80301947Y-87634158D01*
X80354286Y-87629003D01*
X80497547Y-87585546D01*
X80629576Y-87514974D01*
X80745301Y-87420001D01*
X80769104Y-87390997D01*
X83499502Y-84660600D01*
X84365760Y-84660600D01*
X84303700Y-84908184D01*
X84289783Y-85190512D01*
X84331213Y-85470130D01*
X84426397Y-85736292D01*
X84493329Y-85861514D01*
X84737298Y-85933097D01*
X85550395Y-85120000D01*
X85536253Y-85105858D01*
X85715858Y-84926253D01*
X85730000Y-84940395D01*
X85744143Y-84926253D01*
X85923748Y-85105858D01*
X85909605Y-85120000D01*
X86722702Y-85933097D01*
X86966671Y-85861514D01*
X87087571Y-85606004D01*
X87156300Y-85331816D01*
X87170217Y-85049488D01*
X87128787Y-84769870D01*
X87089710Y-84660600D01*
X90139086Y-84660600D01*
X90052795Y-84789744D01*
X89974774Y-84978102D01*
X89935000Y-85178061D01*
X89935000Y-85381939D01*
X89974774Y-85581898D01*
X90052795Y-85770256D01*
X90166063Y-85939774D01*
X90310226Y-86083937D01*
X90479744Y-86197205D01*
X90668102Y-86275226D01*
X90868061Y-86315000D01*
X91071939Y-86315000D01*
X91271898Y-86275226D01*
X91460256Y-86197205D01*
X91629774Y-86083937D01*
X91773937Y-85939774D01*
X91887205Y-85770256D01*
X91965226Y-85581898D01*
X91976535Y-85525043D01*
X92326578Y-85175001D01*
X92483477Y-85175001D01*
X92613490Y-85162196D01*
X92725980Y-85128072D01*
X93190000Y-85128072D01*
X93314482Y-85115812D01*
X93415000Y-85085320D01*
X93515518Y-85115812D01*
X93640000Y-85128072D01*
X95054250Y-85125000D01*
X95213000Y-84966250D01*
X95213000Y-84565117D01*
X95262684Y-84575000D01*
X95417316Y-84575000D01*
X95467000Y-84565117D01*
X95467000Y-84966250D01*
X95625750Y-85125000D01*
X96599300Y-85127115D01*
X96599300Y-85197939D01*
X96639074Y-85397898D01*
X96717095Y-85586256D01*
X96830363Y-85755774D01*
X96974526Y-85899937D01*
X97144044Y-86013205D01*
X97332402Y-86091226D01*
X97397937Y-86104262D01*
X96642199Y-86860000D01*
X96277333Y-86860000D01*
X96240000Y-86856323D01*
X96202667Y-86860000D01*
X86948043Y-86860000D01*
X86844637Y-86705241D01*
X86644759Y-86505363D01*
X86444131Y-86371308D01*
X86471514Y-86356671D01*
X86543097Y-86112702D01*
X85730000Y-85299605D01*
X84916903Y-86112702D01*
X84988486Y-86356671D01*
X85017341Y-86370324D01*
X84815241Y-86505363D01*
X84615363Y-86705241D01*
X84458320Y-86940273D01*
X84350147Y-87201426D01*
X84295000Y-87478665D01*
X84295000Y-87761335D01*
X84350147Y-88038574D01*
X84458320Y-88299727D01*
X84615363Y-88534759D01*
X84815241Y-88734637D01*
X85050273Y-88891680D01*
X85311426Y-88999853D01*
X85588665Y-89055000D01*
X85871335Y-89055000D01*
X86148574Y-88999853D01*
X86409727Y-88891680D01*
X86644759Y-88734637D01*
X86844637Y-88534759D01*
X86948043Y-88380000D01*
X93523256Y-88380000D01*
X93321426Y-88420147D01*
X93060273Y-88528320D01*
X92825241Y-88685363D01*
X92625363Y-88885241D01*
X92468320Y-89120273D01*
X92360147Y-89381426D01*
X92305000Y-89658665D01*
X92305000Y-89941335D01*
X92360147Y-90218574D01*
X92468320Y-90479727D01*
X92625363Y-90714759D01*
X92825241Y-90914637D01*
X93060273Y-91071680D01*
X93321426Y-91179853D01*
X93598665Y-91235000D01*
X93881335Y-91235000D01*
X94063886Y-91198688D01*
X94313201Y-91448003D01*
X94336999Y-91477001D01*
X94452724Y-91571974D01*
X94584753Y-91642546D01*
X94728014Y-91686003D01*
X94839667Y-91697000D01*
X94839677Y-91697000D01*
X94877000Y-91700676D01*
X94914323Y-91697000D01*
X96710078Y-91697000D01*
X96747400Y-91700676D01*
X96784722Y-91697000D01*
X96784733Y-91697000D01*
X96896386Y-91686003D01*
X97039647Y-91642546D01*
X97171676Y-91571974D01*
X97287401Y-91477001D01*
X97311204Y-91447997D01*
X100726904Y-88032298D01*
X100755901Y-88008501D01*
X100850874Y-87892776D01*
X100921446Y-87760747D01*
X100964903Y-87617486D01*
X100975900Y-87505833D01*
X100975900Y-87505825D01*
X100979576Y-87468500D01*
X100975900Y-87431175D01*
X100975900Y-83252925D01*
X100979576Y-83215600D01*
X100975900Y-83178275D01*
X100975900Y-83178267D01*
X100964903Y-83066614D01*
X100921446Y-82923353D01*
X100850874Y-82791324D01*
X100755901Y-82675599D01*
X100726903Y-82651801D01*
X100065101Y-81990000D01*
X100301398Y-81753703D01*
X100330401Y-81729901D01*
X100425374Y-81614176D01*
X100495946Y-81482147D01*
X100539403Y-81338886D01*
X100550400Y-81227233D01*
X100550400Y-81227223D01*
X100554076Y-81189900D01*
X100550400Y-81152577D01*
X100550400Y-79125933D01*
X100554077Y-79088600D01*
X100539403Y-78939614D01*
X100495946Y-78796353D01*
X100425374Y-78664324D01*
X100354199Y-78577597D01*
X100330401Y-78548599D01*
X100301403Y-78524801D01*
X99145604Y-77369003D01*
X99121801Y-77339999D01*
X99006076Y-77245026D01*
X98874047Y-77174454D01*
X98730786Y-77130997D01*
X98619133Y-77120000D01*
X98619122Y-77120000D01*
X98581800Y-77116324D01*
X98544478Y-77120000D01*
X86778043Y-77120000D01*
X86674637Y-76965241D01*
X86474759Y-76765363D01*
X86239727Y-76608320D01*
X85978574Y-76500147D01*
X85701335Y-76445000D01*
X85418665Y-76445000D01*
X85141426Y-76500147D01*
X84880273Y-76608320D01*
X84645241Y-76765363D01*
X84445363Y-76965241D01*
X84288320Y-77200273D01*
X84180147Y-77461426D01*
X84125000Y-77738665D01*
X84125000Y-78021335D01*
X84180147Y-78298574D01*
X84288320Y-78559727D01*
X84445363Y-78794759D01*
X84645241Y-78994637D01*
X84847827Y-79130000D01*
X84645241Y-79265363D01*
X84445363Y-79465241D01*
X84288320Y-79700273D01*
X84180147Y-79961426D01*
X84125000Y-80238665D01*
X84125000Y-80521335D01*
X84180147Y-80798574D01*
X84217644Y-80889100D01*
X75693533Y-80889100D01*
X75656200Y-80885423D01*
X75618867Y-80889100D01*
X75507214Y-80900097D01*
X75363953Y-80943554D01*
X75231924Y-81014126D01*
X75227309Y-81017913D01*
X75094759Y-80885363D01*
X74859727Y-80728320D01*
X74598574Y-80620147D01*
X74321335Y-80565000D01*
X74038665Y-80565000D01*
X73761426Y-80620147D01*
X73500273Y-80728320D01*
X73265241Y-80885363D01*
X73065363Y-81085241D01*
X72947813Y-81261167D01*
X72914286Y-81250997D01*
X72861947Y-81245842D01*
X72754637Y-81085241D01*
X72554759Y-80885363D01*
X72319727Y-80728320D01*
X72058574Y-80620147D01*
X71781335Y-80565000D01*
X71498665Y-80565000D01*
X71221426Y-80620147D01*
X70960273Y-80728320D01*
X70725241Y-80885363D01*
X70525363Y-81085241D01*
X70407813Y-81261167D01*
X70374286Y-81250997D01*
X70321947Y-81245842D01*
X70214637Y-81085241D01*
X70014759Y-80885363D01*
X69779727Y-80728320D01*
X69560138Y-80637363D01*
X71234207Y-78963295D01*
X71245820Y-78969502D01*
X71365518Y-79005812D01*
X71490000Y-79018072D01*
X73090000Y-79018072D01*
X73214482Y-79005812D01*
X73334180Y-78969502D01*
X73444494Y-78910537D01*
X73541185Y-78831185D01*
X73620537Y-78734494D01*
X73679502Y-78624180D01*
X73715812Y-78504482D01*
X73728072Y-78380000D01*
X73728072Y-76780000D01*
X73715812Y-76655518D01*
X73679502Y-76535820D01*
X73620537Y-76425506D01*
X73541185Y-76328815D01*
X73528242Y-76318193D01*
X73647571Y-76066004D01*
X73716300Y-75791816D01*
X73730217Y-75509488D01*
X73688787Y-75229870D01*
X73593603Y-74963708D01*
X73526671Y-74838486D01*
X73282702Y-74766903D01*
X72469605Y-75580000D01*
X72483748Y-75594143D01*
X72304143Y-75773748D01*
X72290000Y-75759605D01*
X72275858Y-75773748D01*
X72096253Y-75594143D01*
X72110395Y-75580000D01*
X71297298Y-74766903D01*
X71053329Y-74838486D01*
X70932429Y-75093996D01*
X70863700Y-75368184D01*
X70849783Y-75650512D01*
X70891213Y-75930130D01*
X70986397Y-76196292D01*
X71051616Y-76318309D01*
X71038815Y-76328815D01*
X70959463Y-76425506D01*
X70900498Y-76535820D01*
X70864188Y-76655518D01*
X70851928Y-76780000D01*
X70851928Y-76885425D01*
X70740424Y-76945026D01*
X70624699Y-77039999D01*
X70529726Y-77155724D01*
X70459154Y-77287753D01*
X70415697Y-77431014D01*
X70401023Y-77580000D01*
X70404700Y-77617333D01*
X70404700Y-77643198D01*
X67287595Y-80760304D01*
X67239727Y-80728320D01*
X66978574Y-80620147D01*
X66701335Y-80565000D01*
X66418665Y-80565000D01*
X66141426Y-80620147D01*
X65880273Y-80728320D01*
X65645241Y-80885363D01*
X65445363Y-81085241D01*
X65288320Y-81320273D01*
X65180147Y-81581426D01*
X65125000Y-81858665D01*
X63120624Y-81858665D01*
X63100000Y-80636309D01*
X63100000Y-70810000D01*
X63691928Y-70810000D01*
X63704188Y-70934482D01*
X63740498Y-71054180D01*
X63799463Y-71164494D01*
X63878815Y-71261185D01*
X63975506Y-71340537D01*
X64085820Y-71399502D01*
X64158380Y-71421513D01*
X64026525Y-71553368D01*
X63864010Y-71796589D01*
X63752068Y-72066842D01*
X63695000Y-72353740D01*
X63695000Y-72646260D01*
X63752068Y-72933158D01*
X63864010Y-73203411D01*
X64026525Y-73446632D01*
X64233368Y-73653475D01*
X64407760Y-73770000D01*
X64233368Y-73886525D01*
X64026525Y-74093368D01*
X63864010Y-74336589D01*
X63752068Y-74606842D01*
X63695000Y-74893740D01*
X63695000Y-75186260D01*
X63752068Y-75473158D01*
X63864010Y-75743411D01*
X64026525Y-75986632D01*
X64233368Y-76193475D01*
X64476589Y-76355990D01*
X64746842Y-76467932D01*
X65033740Y-76525000D01*
X65326260Y-76525000D01*
X65613158Y-76467932D01*
X65883411Y-76355990D01*
X66126632Y-76193475D01*
X66333475Y-75986632D01*
X66495990Y-75743411D01*
X66607932Y-75473158D01*
X66665000Y-75186260D01*
X66665000Y-74893740D01*
X66607932Y-74606842D01*
X66599837Y-74587298D01*
X71476903Y-74587298D01*
X72290000Y-75400395D01*
X73103097Y-74587298D01*
X73031514Y-74343329D01*
X72776004Y-74222429D01*
X72501816Y-74153700D01*
X72219488Y-74139783D01*
X71939870Y-74181213D01*
X71673708Y-74276397D01*
X71548486Y-74343329D01*
X71476903Y-74587298D01*
X66599837Y-74587298D01*
X66495990Y-74336589D01*
X66333475Y-74093368D01*
X66126632Y-73886525D01*
X65952240Y-73770000D01*
X66126632Y-73653475D01*
X66333475Y-73446632D01*
X66495990Y-73203411D01*
X66607932Y-72933158D01*
X66665000Y-72646260D01*
X66665000Y-72353740D01*
X66607932Y-72066842D01*
X66495990Y-71796589D01*
X66333475Y-71553368D01*
X66201620Y-71421513D01*
X66274180Y-71399502D01*
X66384494Y-71340537D01*
X66481185Y-71261185D01*
X66560537Y-71164494D01*
X66619502Y-71054180D01*
X66655812Y-70934482D01*
X66668072Y-70810000D01*
X66665000Y-70245750D01*
X66506250Y-70087000D01*
X65307000Y-70087000D01*
X65307000Y-70107000D01*
X65053000Y-70107000D01*
X65053000Y-70087000D01*
X63853750Y-70087000D01*
X63695000Y-70245750D01*
X63691928Y-70810000D01*
X63100000Y-70810000D01*
X63100000Y-69110000D01*
X63691928Y-69110000D01*
X63695000Y-69674250D01*
X63853750Y-69833000D01*
X65053000Y-69833000D01*
X65053000Y-68633750D01*
X65307000Y-68633750D01*
X65307000Y-69833000D01*
X66506250Y-69833000D01*
X66618738Y-69720512D01*
X70809783Y-69720512D01*
X70851213Y-70000130D01*
X70946397Y-70266292D01*
X71011616Y-70388309D01*
X70998815Y-70398815D01*
X70919463Y-70495506D01*
X70860498Y-70605820D01*
X70824188Y-70725518D01*
X70811928Y-70850000D01*
X70811928Y-72450000D01*
X70824188Y-72574482D01*
X70860498Y-72694180D01*
X70919463Y-72804494D01*
X70998815Y-72901185D01*
X71095506Y-72980537D01*
X71205820Y-73039502D01*
X71325518Y-73075812D01*
X71450000Y-73088072D01*
X73050000Y-73088072D01*
X73174482Y-73075812D01*
X73294180Y-73039502D01*
X73404494Y-72980537D01*
X73501185Y-72901185D01*
X73523948Y-72873449D01*
X77131501Y-76481003D01*
X77155299Y-76510001D01*
X77184297Y-76533799D01*
X77271024Y-76604974D01*
X77403053Y-76675546D01*
X77546314Y-76719003D01*
X77695300Y-76733677D01*
X77732633Y-76730000D01*
X78391928Y-76730000D01*
X78391928Y-76922500D01*
X78404188Y-77046982D01*
X78440498Y-77166680D01*
X78499463Y-77276994D01*
X78578815Y-77373685D01*
X78675506Y-77453037D01*
X78785820Y-77512002D01*
X78905518Y-77548312D01*
X79030000Y-77560572D01*
X81030000Y-77560572D01*
X81154482Y-77548312D01*
X81274180Y-77512002D01*
X81384494Y-77453037D01*
X81481185Y-77373685D01*
X81560537Y-77276994D01*
X81619502Y-77166680D01*
X81655812Y-77046982D01*
X81668072Y-76922500D01*
X81668072Y-75017500D01*
X81655812Y-74893018D01*
X81619502Y-74773320D01*
X81560537Y-74663006D01*
X81481185Y-74566315D01*
X81384494Y-74486963D01*
X81292781Y-74437941D01*
X81405969Y-74296923D01*
X81549571Y-74021094D01*
X81620563Y-73802980D01*
X81500594Y-73557000D01*
X80157000Y-73557000D01*
X80157000Y-73577000D01*
X79903000Y-73577000D01*
X79903000Y-73557000D01*
X78559406Y-73557000D01*
X78439437Y-73802980D01*
X78510429Y-74021094D01*
X78654031Y-74296923D01*
X78767219Y-74437941D01*
X78675506Y-74486963D01*
X78578815Y-74566315D01*
X78499463Y-74663006D01*
X78440498Y-74773320D01*
X78404188Y-74893018D01*
X78391928Y-75017500D01*
X78391928Y-75210000D01*
X78010102Y-75210000D01*
X73939104Y-71139003D01*
X73915301Y-71109999D01*
X73799576Y-71015026D01*
X73688072Y-70955425D01*
X73688072Y-70890000D01*
X78387319Y-70890000D01*
X78417970Y-71201204D01*
X78508745Y-71500449D01*
X78656155Y-71776235D01*
X78854537Y-72017963D01*
X79033899Y-72165163D01*
X78848685Y-72320563D01*
X78654031Y-72563077D01*
X78510429Y-72838906D01*
X78439437Y-73057020D01*
X78559406Y-73303000D01*
X79903000Y-73303000D01*
X79903000Y-73283000D01*
X80157000Y-73283000D01*
X80157000Y-73303000D01*
X81500594Y-73303000D01*
X81620563Y-73057020D01*
X81549571Y-72838906D01*
X81405969Y-72563077D01*
X81211315Y-72320563D01*
X81026101Y-72165163D01*
X81205463Y-72017963D01*
X81403845Y-71776235D01*
X81551255Y-71500449D01*
X81642030Y-71201204D01*
X81672681Y-70890000D01*
X81642030Y-70578796D01*
X81551255Y-70279551D01*
X81439249Y-70070000D01*
X91501928Y-70070000D01*
X91501928Y-71570000D01*
X91518992Y-71743254D01*
X91569528Y-71909850D01*
X91651595Y-72063386D01*
X91762038Y-72197962D01*
X91896614Y-72308405D01*
X92050150Y-72390472D01*
X92216746Y-72441008D01*
X92390000Y-72458072D01*
X93590000Y-72458072D01*
X93763254Y-72441008D01*
X93929850Y-72390472D01*
X94083386Y-72308405D01*
X94217962Y-72197962D01*
X94328405Y-72063386D01*
X94382777Y-71961663D01*
X94434866Y-72025134D01*
X94660987Y-72210706D01*
X94918967Y-72348599D01*
X95198890Y-72433513D01*
X95490000Y-72462185D01*
X95781111Y-72433513D01*
X96061034Y-72348599D01*
X96319014Y-72210706D01*
X96545134Y-72025134D01*
X96730706Y-71799014D01*
X96868599Y-71541033D01*
X96953513Y-71261110D01*
X96975000Y-71042949D01*
X96975000Y-70597050D01*
X96953513Y-70378889D01*
X96868599Y-70098966D01*
X96730706Y-69840986D01*
X96545134Y-69614866D01*
X96319013Y-69429294D01*
X96061033Y-69291401D01*
X95781110Y-69206487D01*
X95490000Y-69177815D01*
X95198889Y-69206487D01*
X94918966Y-69291401D01*
X94660986Y-69429294D01*
X94434866Y-69614866D01*
X94382777Y-69678337D01*
X94328405Y-69576614D01*
X94217962Y-69442038D01*
X94083386Y-69331595D01*
X93929850Y-69249528D01*
X93763254Y-69198992D01*
X93590000Y-69181928D01*
X92390000Y-69181928D01*
X92216746Y-69198992D01*
X92050150Y-69249528D01*
X91896614Y-69331595D01*
X91762038Y-69442038D01*
X91651595Y-69576614D01*
X91569528Y-69730150D01*
X91518992Y-69896746D01*
X91501928Y-70070000D01*
X81439249Y-70070000D01*
X81403845Y-70003765D01*
X81205463Y-69762037D01*
X80963735Y-69563655D01*
X80687949Y-69416245D01*
X80388704Y-69325470D01*
X80155486Y-69302500D01*
X79904514Y-69302500D01*
X79671296Y-69325470D01*
X79372051Y-69416245D01*
X79096265Y-69563655D01*
X78854537Y-69762037D01*
X78656155Y-70003765D01*
X78508745Y-70279551D01*
X78417970Y-70578796D01*
X78387319Y-70890000D01*
X73688072Y-70890000D01*
X73688072Y-70850000D01*
X73675812Y-70725518D01*
X73639502Y-70605820D01*
X73580537Y-70495506D01*
X73501185Y-70398815D01*
X73488242Y-70388193D01*
X73607571Y-70136004D01*
X73676300Y-69861816D01*
X73690217Y-69579488D01*
X73648787Y-69299870D01*
X73553603Y-69033708D01*
X73486671Y-68908486D01*
X73242702Y-68836903D01*
X72429605Y-69650000D01*
X72443748Y-69664143D01*
X72264143Y-69843748D01*
X72250000Y-69829605D01*
X72235858Y-69843748D01*
X72056253Y-69664143D01*
X72070395Y-69650000D01*
X71257298Y-68836903D01*
X71013329Y-68908486D01*
X70892429Y-69163996D01*
X70823700Y-69438184D01*
X70809783Y-69720512D01*
X66618738Y-69720512D01*
X66665000Y-69674250D01*
X66668072Y-69110000D01*
X66655812Y-68985518D01*
X66619502Y-68865820D01*
X66560537Y-68755506D01*
X66481185Y-68658815D01*
X66479337Y-68657298D01*
X71436903Y-68657298D01*
X72250000Y-69470395D01*
X73063097Y-68657298D01*
X72991514Y-68413329D01*
X72736004Y-68292429D01*
X72461816Y-68223700D01*
X72179488Y-68209783D01*
X71899870Y-68251213D01*
X71633708Y-68346397D01*
X71508486Y-68413329D01*
X71436903Y-68657298D01*
X66479337Y-68657298D01*
X66384494Y-68579463D01*
X66274180Y-68520498D01*
X66154482Y-68484188D01*
X66030000Y-68471928D01*
X65465750Y-68475000D01*
X65307000Y-68633750D01*
X65053000Y-68633750D01*
X64894250Y-68475000D01*
X64330000Y-68471928D01*
X64205518Y-68484188D01*
X64085820Y-68520498D01*
X63975506Y-68579463D01*
X63878815Y-68658815D01*
X63799463Y-68755506D01*
X63740498Y-68865820D01*
X63704188Y-68985518D01*
X63691928Y-69110000D01*
X63100000Y-69110000D01*
X63100000Y-67900000D01*
X99976920Y-67900000D01*
X99907808Y-68003434D01*
%TA.AperFunction,Conductor*%
D25*
G36*
X99907808Y-68003434D02*
G01*
X99758761Y-68363265D01*
X99682777Y-68745261D01*
X99682777Y-69134739D01*
X99758761Y-69516735D01*
X99907808Y-69876566D01*
X100124191Y-70200406D01*
X100399594Y-70475809D01*
X100723434Y-70692192D01*
X101083265Y-70841239D01*
X101465261Y-70917223D01*
X101854739Y-70917223D01*
X102236735Y-70841239D01*
X102571371Y-70702628D01*
X102680000Y-70727351D01*
X102680001Y-98240000D01*
X65936242Y-98240000D01*
X66081239Y-97889946D01*
X66157223Y-97507950D01*
X66157223Y-97118472D01*
X66081239Y-96736476D01*
X65932192Y-96376645D01*
X65715809Y-96052805D01*
X65589219Y-95926215D01*
X65579939Y-95911635D01*
X65562731Y-95893643D01*
X65542396Y-95879392D01*
X65440406Y-95777402D01*
X65116566Y-95561019D01*
X64756735Y-95411972D01*
X64374739Y-95335988D01*
X63985261Y-95335988D01*
X63603265Y-95411972D01*
X63351053Y-95516442D01*
X63322240Y-93808665D01*
X64115000Y-93808665D01*
X64115000Y-94091335D01*
X64170147Y-94368574D01*
X64278320Y-94629727D01*
X64435363Y-94864759D01*
X64635241Y-95064637D01*
X64870273Y-95221680D01*
X65131426Y-95329853D01*
X65408665Y-95385000D01*
X65691335Y-95385000D01*
X65968574Y-95329853D01*
X66229727Y-95221680D01*
X66464759Y-95064637D01*
X66586694Y-94942702D01*
X67236903Y-94942702D01*
X67308486Y-95186671D01*
X67563996Y-95307571D01*
X67838184Y-95376300D01*
X68120512Y-95390217D01*
X68400130Y-95348787D01*
X68666292Y-95253603D01*
X68791514Y-95186671D01*
X68863097Y-94942702D01*
X68050000Y-94129605D01*
X67236903Y-94942702D01*
X66586694Y-94942702D01*
X66664637Y-94864759D01*
X66798692Y-94664131D01*
X66813329Y-94691514D01*
X67057298Y-94763097D01*
X67870395Y-93950000D01*
X68229605Y-93950000D01*
X69042702Y-94763097D01*
X69286671Y-94691514D01*
X69407571Y-94436004D01*
X69426957Y-94358665D01*
X77645000Y-94358665D01*
X77645000Y-94641335D01*
X77700147Y-94918574D01*
X77808320Y-95179727D01*
X77965363Y-95414759D01*
X78165241Y-95614637D01*
X78400273Y-95771680D01*
X78661426Y-95879853D01*
X78938665Y-95935000D01*
X79221335Y-95935000D01*
X79498574Y-95879853D01*
X79759727Y-95771680D01*
X79994759Y-95614637D01*
X80194637Y-95414759D01*
X80351680Y-95179727D01*
X80459853Y-94918574D01*
X80515000Y-94641335D01*
X80515000Y-94358665D01*
X80489142Y-94228665D01*
X82425000Y-94228665D01*
X82425000Y-94511335D01*
X82480147Y-94788574D01*
X82588320Y-95049727D01*
X82745363Y-95284759D01*
X82945241Y-95484637D01*
X83180273Y-95641680D01*
X83441426Y-95749853D01*
X83718665Y-95805000D01*
X84001335Y-95805000D01*
X84278574Y-95749853D01*
X84539727Y-95641680D01*
X84774759Y-95484637D01*
X84974637Y-95284759D01*
X85131680Y-95049727D01*
X85239853Y-94788574D01*
X85253684Y-94719039D01*
X90088096Y-94719039D01*
X90128754Y-94853087D01*
X90248963Y-95107420D01*
X90416481Y-95333414D01*
X90624869Y-95522385D01*
X90866119Y-95667070D01*
X91130960Y-95761909D01*
X91353000Y-95640624D01*
X91353000Y-94497000D01*
X91607000Y-94497000D01*
X91607000Y-95640624D01*
X91829040Y-95761909D01*
X92093881Y-95667070D01*
X92335131Y-95522385D01*
X92543519Y-95333414D01*
X92711037Y-95107420D01*
X92831246Y-94853087D01*
X92871904Y-94719039D01*
X92749915Y-94497000D01*
X91607000Y-94497000D01*
X91353000Y-94497000D01*
X90210085Y-94497000D01*
X90088096Y-94719039D01*
X85253684Y-94719039D01*
X85295000Y-94511335D01*
X85295000Y-94228665D01*
X85253685Y-94020961D01*
X90088096Y-94020961D01*
X90210085Y-94243000D01*
X91353000Y-94243000D01*
X91353000Y-93099376D01*
X91607000Y-93099376D01*
X91607000Y-94243000D01*
X92749915Y-94243000D01*
X92871904Y-94020961D01*
X92831246Y-93886913D01*
X92711037Y-93632580D01*
X92543519Y-93406586D01*
X92335131Y-93217615D01*
X92093881Y-93072930D01*
X92031279Y-93050512D01*
X99089783Y-93050512D01*
X99131213Y-93330130D01*
X99226397Y-93596292D01*
X99291616Y-93718309D01*
X99278815Y-93728815D01*
X99199463Y-93825506D01*
X99140498Y-93935820D01*
X99104188Y-94055518D01*
X99091928Y-94180000D01*
X99091928Y-95780000D01*
X99104188Y-95904482D01*
X99140498Y-96024180D01*
X99199463Y-96134494D01*
X99278815Y-96231185D01*
X99375506Y-96310537D01*
X99485820Y-96369502D01*
X99605518Y-96405812D01*
X99730000Y-96418072D01*
X101330000Y-96418072D01*
X101454482Y-96405812D01*
X101574180Y-96369502D01*
X101684494Y-96310537D01*
X101781185Y-96231185D01*
X101860537Y-96134494D01*
X101919502Y-96024180D01*
X101955812Y-95904482D01*
X101968072Y-95780000D01*
X101968072Y-94180000D01*
X101955812Y-94055518D01*
X101919502Y-93935820D01*
X101860537Y-93825506D01*
X101781185Y-93728815D01*
X101768242Y-93718193D01*
X101887571Y-93466004D01*
X101956300Y-93191816D01*
X101970217Y-92909488D01*
X101928787Y-92629870D01*
X101833603Y-92363708D01*
X101766671Y-92238486D01*
X101522702Y-92166903D01*
X100709605Y-92980000D01*
X100723748Y-92994143D01*
X100544143Y-93173748D01*
X100530000Y-93159605D01*
X100515858Y-93173748D01*
X100336253Y-92994143D01*
X100350395Y-92980000D01*
X99537298Y-92166903D01*
X99293329Y-92238486D01*
X99172429Y-92493996D01*
X99103700Y-92768184D01*
X99089783Y-93050512D01*
X92031279Y-93050512D01*
X91829040Y-92978091D01*
X91607000Y-93099376D01*
X91353000Y-93099376D01*
X91130960Y-92978091D01*
X90866119Y-93072930D01*
X90624869Y-93217615D01*
X90416481Y-93406586D01*
X90248963Y-93632580D01*
X90128754Y-93886913D01*
X90088096Y-94020961D01*
X85253685Y-94020961D01*
X85239853Y-93951426D01*
X85131680Y-93690273D01*
X84974637Y-93455241D01*
X84774759Y-93255363D01*
X84539727Y-93098320D01*
X84278574Y-92990147D01*
X84001335Y-92935000D01*
X83718665Y-92935000D01*
X83441426Y-92990147D01*
X83180273Y-93098320D01*
X82945241Y-93255363D01*
X82745363Y-93455241D01*
X82588320Y-93690273D01*
X82480147Y-93951426D01*
X82425000Y-94228665D01*
X80489142Y-94228665D01*
X80459853Y-94081426D01*
X80351680Y-93820273D01*
X80194637Y-93585241D01*
X79994759Y-93385363D01*
X79759727Y-93228320D01*
X79498574Y-93120147D01*
X79221335Y-93065000D01*
X78938665Y-93065000D01*
X78661426Y-93120147D01*
X78400273Y-93228320D01*
X78165241Y-93385363D01*
X77965363Y-93585241D01*
X77808320Y-93820273D01*
X77700147Y-94081426D01*
X77645000Y-94358665D01*
X69426957Y-94358665D01*
X69476300Y-94161816D01*
X69490217Y-93879488D01*
X69448787Y-93599870D01*
X69353603Y-93333708D01*
X69286671Y-93208486D01*
X69042702Y-93136903D01*
X68229605Y-93950000D01*
X67870395Y-93950000D01*
X67856253Y-93935858D01*
X68035858Y-93756253D01*
X68050000Y-93770395D01*
X68863097Y-92957298D01*
X68791514Y-92713329D01*
X68536004Y-92592429D01*
X68261816Y-92523700D01*
X68061001Y-92513801D01*
X68587504Y-91987298D01*
X99716903Y-91987298D01*
X100530000Y-92800395D01*
X101343097Y-91987298D01*
X101271514Y-91743329D01*
X101016004Y-91622429D01*
X100741816Y-91553700D01*
X100459488Y-91539783D01*
X100179870Y-91581213D01*
X99913708Y-91676397D01*
X99788486Y-91743329D01*
X99716903Y-91987298D01*
X68587504Y-91987298D01*
X69069502Y-91505300D01*
X69633478Y-91505300D01*
X69670800Y-91508976D01*
X69708122Y-91505300D01*
X69708133Y-91505300D01*
X69819786Y-91494303D01*
X69963047Y-91450846D01*
X70095076Y-91380274D01*
X70210801Y-91285301D01*
X70234603Y-91256298D01*
X70743838Y-90747063D01*
X70960273Y-90891680D01*
X71221426Y-90999853D01*
X71498665Y-91055000D01*
X71781335Y-91055000D01*
X72058574Y-90999853D01*
X72319727Y-90891680D01*
X72554759Y-90734637D01*
X72754637Y-90534759D01*
X72911680Y-90299727D01*
X72916067Y-90289135D01*
X73027615Y-90475131D01*
X73216586Y-90683519D01*
X73442580Y-90851037D01*
X73696913Y-90971246D01*
X73830961Y-91011904D01*
X74053000Y-90889915D01*
X74053000Y-89747000D01*
X74307000Y-89747000D01*
X74307000Y-90889915D01*
X74529039Y-91011904D01*
X74663087Y-90971246D01*
X74917420Y-90851037D01*
X75143414Y-90683519D01*
X75332385Y-90475131D01*
X75477070Y-90233881D01*
X75571909Y-89969040D01*
X75450624Y-89747000D01*
X74307000Y-89747000D01*
X74053000Y-89747000D01*
X74033000Y-89747000D01*
X74033000Y-89493000D01*
X74053000Y-89493000D01*
X74053000Y-88350085D01*
X74307000Y-88350085D01*
X74307000Y-89493000D01*
X75450624Y-89493000D01*
X75571909Y-89270960D01*
X75477070Y-89006119D01*
X75332385Y-88764869D01*
X75143414Y-88556481D01*
X74917420Y-88388963D01*
X74663087Y-88268754D01*
X74529039Y-88228096D01*
X74307000Y-88350085D01*
X74053000Y-88350085D01*
X73830961Y-88228096D01*
X73696913Y-88268754D01*
X73442580Y-88388963D01*
X73216586Y-88556481D01*
X73027615Y-88764869D01*
X72916067Y-88950865D01*
X72911680Y-88940273D01*
X72754637Y-88705241D01*
X72554759Y-88505363D01*
X72319727Y-88348320D01*
X72058574Y-88240147D01*
X71781335Y-88185000D01*
X71498665Y-88185000D01*
X71221426Y-88240147D01*
X70960273Y-88348320D01*
X70725241Y-88505363D01*
X70525363Y-88705241D01*
X70418053Y-88865842D01*
X70365714Y-88870997D01*
X70332187Y-88881167D01*
X70214637Y-88705241D01*
X70014759Y-88505363D01*
X69779727Y-88348320D01*
X69518574Y-88240147D01*
X69241335Y-88185000D01*
X68958665Y-88185000D01*
X68681426Y-88240147D01*
X68420273Y-88348320D01*
X68185241Y-88505363D01*
X67986643Y-88703961D01*
X67985812Y-88695518D01*
X67949502Y-88575820D01*
X67890537Y-88465506D01*
X67811185Y-88368815D01*
X67714494Y-88289463D01*
X67604180Y-88230498D01*
X67484482Y-88194188D01*
X67360000Y-88181928D01*
X65760000Y-88181928D01*
X65635518Y-88194188D01*
X65515820Y-88230498D01*
X65405506Y-88289463D01*
X65308815Y-88368815D01*
X65229463Y-88465506D01*
X65170498Y-88575820D01*
X65134188Y-88695518D01*
X65121928Y-88820000D01*
X65121928Y-90420000D01*
X65134188Y-90544482D01*
X65170498Y-90664180D01*
X65229463Y-90774494D01*
X65308815Y-90871185D01*
X65405506Y-90950537D01*
X65515820Y-91009502D01*
X65635518Y-91045812D01*
X65760000Y-91058072D01*
X67360000Y-91058072D01*
X67367905Y-91057293D01*
X65873886Y-92551312D01*
X65691335Y-92515000D01*
X65408665Y-92515000D01*
X65131426Y-92570147D01*
X64870273Y-92678320D01*
X64635241Y-92835363D01*
X64435363Y-93035241D01*
X64278320Y-93270273D01*
X64170147Y-93531426D01*
X64115000Y-93808665D01*
X63322240Y-93808665D01*
X63120624Y-81858665D01*
X65125000Y-81858665D01*
X65125000Y-82141335D01*
X65180147Y-82418574D01*
X65288320Y-82679727D01*
X65445363Y-82914759D01*
X65645241Y-83114637D01*
X65880273Y-83271680D01*
X66141426Y-83379853D01*
X66418665Y-83435000D01*
X66701335Y-83435000D01*
X66978574Y-83379853D01*
X67239727Y-83271680D01*
X67456222Y-83127023D01*
X69337101Y-85007903D01*
X69360899Y-85036901D01*
X69417152Y-85083067D01*
X69476624Y-85131874D01*
X69608653Y-85202446D01*
X69751914Y-85245903D01*
X69900900Y-85260577D01*
X69938233Y-85256900D01*
X80753599Y-85256900D01*
X80119947Y-85890551D01*
X79994759Y-85765363D01*
X79759727Y-85608320D01*
X79498574Y-85500147D01*
X79221335Y-85445000D01*
X78938665Y-85445000D01*
X78661426Y-85500147D01*
X78400273Y-85608320D01*
X78165241Y-85765363D01*
X77965363Y-85965241D01*
X77808320Y-86200273D01*
X77700147Y-86461426D01*
X77645000Y-86738665D01*
X77645000Y-87021335D01*
X77700147Y-87298574D01*
X77808320Y-87559727D01*
X77965363Y-87794759D01*
X78165241Y-87994637D01*
X78400273Y-88151680D01*
X78661426Y-88259853D01*
X78938665Y-88315000D01*
X79221335Y-88315000D01*
X79498574Y-88259853D01*
X79759727Y-88151680D01*
X79994759Y-87994637D01*
X80194637Y-87794759D01*
X80301947Y-87634158D01*
X80354286Y-87629003D01*
X80497547Y-87585546D01*
X80629576Y-87514974D01*
X80745301Y-87420001D01*
X80769104Y-87390997D01*
X83499502Y-84660600D01*
X84365760Y-84660600D01*
X84303700Y-84908184D01*
X84289783Y-85190512D01*
X84331213Y-85470130D01*
X84426397Y-85736292D01*
X84493329Y-85861514D01*
X84737298Y-85933097D01*
X85550395Y-85120000D01*
X85536253Y-85105858D01*
X85715858Y-84926253D01*
X85730000Y-84940395D01*
X85744143Y-84926253D01*
X85923748Y-85105858D01*
X85909605Y-85120000D01*
X86722702Y-85933097D01*
X86966671Y-85861514D01*
X87087571Y-85606004D01*
X87156300Y-85331816D01*
X87170217Y-85049488D01*
X87128787Y-84769870D01*
X87089710Y-84660600D01*
X90139086Y-84660600D01*
X90052795Y-84789744D01*
X89974774Y-84978102D01*
X89935000Y-85178061D01*
X89935000Y-85381939D01*
X89974774Y-85581898D01*
X90052795Y-85770256D01*
X90166063Y-85939774D01*
X90310226Y-86083937D01*
X90479744Y-86197205D01*
X90668102Y-86275226D01*
X90868061Y-86315000D01*
X91071939Y-86315000D01*
X91271898Y-86275226D01*
X91460256Y-86197205D01*
X91629774Y-86083937D01*
X91773937Y-85939774D01*
X91887205Y-85770256D01*
X91965226Y-85581898D01*
X91976535Y-85525043D01*
X92326578Y-85175001D01*
X92483477Y-85175001D01*
X92613490Y-85162196D01*
X92725980Y-85128072D01*
X93190000Y-85128072D01*
X93314482Y-85115812D01*
X93415000Y-85085320D01*
X93515518Y-85115812D01*
X93640000Y-85128072D01*
X95054250Y-85125000D01*
X95213000Y-84966250D01*
X95213000Y-84565117D01*
X95262684Y-84575000D01*
X95417316Y-84575000D01*
X95467000Y-84565117D01*
X95467000Y-84966250D01*
X95625750Y-85125000D01*
X96599300Y-85127115D01*
X96599300Y-85197939D01*
X96639074Y-85397898D01*
X96717095Y-85586256D01*
X96830363Y-85755774D01*
X96974526Y-85899937D01*
X97144044Y-86013205D01*
X97332402Y-86091226D01*
X97397937Y-86104262D01*
X96642199Y-86860000D01*
X96277333Y-86860000D01*
X96240000Y-86856323D01*
X96202667Y-86860000D01*
X86948043Y-86860000D01*
X86844637Y-86705241D01*
X86644759Y-86505363D01*
X86444131Y-86371308D01*
X86471514Y-86356671D01*
X86543097Y-86112702D01*
X85730000Y-85299605D01*
X84916903Y-86112702D01*
X84988486Y-86356671D01*
X85017341Y-86370324D01*
X84815241Y-86505363D01*
X84615363Y-86705241D01*
X84458320Y-86940273D01*
X84350147Y-87201426D01*
X84295000Y-87478665D01*
X84295000Y-87761335D01*
X84350147Y-88038574D01*
X84458320Y-88299727D01*
X84615363Y-88534759D01*
X84815241Y-88734637D01*
X85050273Y-88891680D01*
X85311426Y-88999853D01*
X85588665Y-89055000D01*
X85871335Y-89055000D01*
X86148574Y-88999853D01*
X86409727Y-88891680D01*
X86644759Y-88734637D01*
X86844637Y-88534759D01*
X86948043Y-88380000D01*
X93523256Y-88380000D01*
X93321426Y-88420147D01*
X93060273Y-88528320D01*
X92825241Y-88685363D01*
X92625363Y-88885241D01*
X92468320Y-89120273D01*
X92360147Y-89381426D01*
X92305000Y-89658665D01*
X92305000Y-89941335D01*
X92360147Y-90218574D01*
X92468320Y-90479727D01*
X92625363Y-90714759D01*
X92825241Y-90914637D01*
X93060273Y-91071680D01*
X93321426Y-91179853D01*
X93598665Y-91235000D01*
X93881335Y-91235000D01*
X94063886Y-91198688D01*
X94313201Y-91448003D01*
X94336999Y-91477001D01*
X94452724Y-91571974D01*
X94584753Y-91642546D01*
X94728014Y-91686003D01*
X94839667Y-91697000D01*
X94839677Y-91697000D01*
X94877000Y-91700676D01*
X94914323Y-91697000D01*
X96710078Y-91697000D01*
X96747400Y-91700676D01*
X96784722Y-91697000D01*
X96784733Y-91697000D01*
X96896386Y-91686003D01*
X97039647Y-91642546D01*
X97171676Y-91571974D01*
X97287401Y-91477001D01*
X97311204Y-91447997D01*
X100726904Y-88032298D01*
X100755901Y-88008501D01*
X100850874Y-87892776D01*
X100921446Y-87760747D01*
X100964903Y-87617486D01*
X100975900Y-87505833D01*
X100975900Y-87505825D01*
X100979576Y-87468500D01*
X100975900Y-87431175D01*
X100975900Y-83252925D01*
X100979576Y-83215600D01*
X100975900Y-83178275D01*
X100975900Y-83178267D01*
X100964903Y-83066614D01*
X100921446Y-82923353D01*
X100850874Y-82791324D01*
X100755901Y-82675599D01*
X100726903Y-82651801D01*
X100065101Y-81990000D01*
X100301398Y-81753703D01*
X100330401Y-81729901D01*
X100425374Y-81614176D01*
X100495946Y-81482147D01*
X100539403Y-81338886D01*
X100550400Y-81227233D01*
X100550400Y-81227223D01*
X100554076Y-81189900D01*
X100550400Y-81152577D01*
X100550400Y-79125933D01*
X100554077Y-79088600D01*
X100539403Y-78939614D01*
X100495946Y-78796353D01*
X100425374Y-78664324D01*
X100354199Y-78577597D01*
X100330401Y-78548599D01*
X100301403Y-78524801D01*
X99145604Y-77369003D01*
X99121801Y-77339999D01*
X99006076Y-77245026D01*
X98874047Y-77174454D01*
X98730786Y-77130997D01*
X98619133Y-77120000D01*
X98619122Y-77120000D01*
X98581800Y-77116324D01*
X98544478Y-77120000D01*
X86778043Y-77120000D01*
X86674637Y-76965241D01*
X86474759Y-76765363D01*
X86239727Y-76608320D01*
X85978574Y-76500147D01*
X85701335Y-76445000D01*
X85418665Y-76445000D01*
X85141426Y-76500147D01*
X84880273Y-76608320D01*
X84645241Y-76765363D01*
X84445363Y-76965241D01*
X84288320Y-77200273D01*
X84180147Y-77461426D01*
X84125000Y-77738665D01*
X84125000Y-78021335D01*
X84180147Y-78298574D01*
X84288320Y-78559727D01*
X84445363Y-78794759D01*
X84645241Y-78994637D01*
X84847827Y-79130000D01*
X84645241Y-79265363D01*
X84445363Y-79465241D01*
X84288320Y-79700273D01*
X84180147Y-79961426D01*
X84125000Y-80238665D01*
X84125000Y-80521335D01*
X84180147Y-80798574D01*
X84217644Y-80889100D01*
X75693533Y-80889100D01*
X75656200Y-80885423D01*
X75618867Y-80889100D01*
X75507214Y-80900097D01*
X75363953Y-80943554D01*
X75231924Y-81014126D01*
X75227309Y-81017913D01*
X75094759Y-80885363D01*
X74859727Y-80728320D01*
X74598574Y-80620147D01*
X74321335Y-80565000D01*
X74038665Y-80565000D01*
X73761426Y-80620147D01*
X73500273Y-80728320D01*
X73265241Y-80885363D01*
X73065363Y-81085241D01*
X72947813Y-81261167D01*
X72914286Y-81250997D01*
X72861947Y-81245842D01*
X72754637Y-81085241D01*
X72554759Y-80885363D01*
X72319727Y-80728320D01*
X72058574Y-80620147D01*
X71781335Y-80565000D01*
X71498665Y-80565000D01*
X71221426Y-80620147D01*
X70960273Y-80728320D01*
X70725241Y-80885363D01*
X70525363Y-81085241D01*
X70407813Y-81261167D01*
X70374286Y-81250997D01*
X70321947Y-81245842D01*
X70214637Y-81085241D01*
X70014759Y-80885363D01*
X69779727Y-80728320D01*
X69560138Y-80637363D01*
X71234207Y-78963295D01*
X71245820Y-78969502D01*
X71365518Y-79005812D01*
X71490000Y-79018072D01*
X73090000Y-79018072D01*
X73214482Y-79005812D01*
X73334180Y-78969502D01*
X73444494Y-78910537D01*
X73541185Y-78831185D01*
X73620537Y-78734494D01*
X73679502Y-78624180D01*
X73715812Y-78504482D01*
X73728072Y-78380000D01*
X73728072Y-76780000D01*
X73715812Y-76655518D01*
X73679502Y-76535820D01*
X73620537Y-76425506D01*
X73541185Y-76328815D01*
X73528242Y-76318193D01*
X73647571Y-76066004D01*
X73716300Y-75791816D01*
X73730217Y-75509488D01*
X73688787Y-75229870D01*
X73593603Y-74963708D01*
X73526671Y-74838486D01*
X73282702Y-74766903D01*
X72469605Y-75580000D01*
X72483748Y-75594143D01*
X72304143Y-75773748D01*
X72290000Y-75759605D01*
X72275858Y-75773748D01*
X72096253Y-75594143D01*
X72110395Y-75580000D01*
X71297298Y-74766903D01*
X71053329Y-74838486D01*
X70932429Y-75093996D01*
X70863700Y-75368184D01*
X70849783Y-75650512D01*
X70891213Y-75930130D01*
X70986397Y-76196292D01*
X71051616Y-76318309D01*
X71038815Y-76328815D01*
X70959463Y-76425506D01*
X70900498Y-76535820D01*
X70864188Y-76655518D01*
X70851928Y-76780000D01*
X70851928Y-76885425D01*
X70740424Y-76945026D01*
X70624699Y-77039999D01*
X70529726Y-77155724D01*
X70459154Y-77287753D01*
X70415697Y-77431014D01*
X70401023Y-77580000D01*
X70404700Y-77617333D01*
X70404700Y-77643198D01*
X67287595Y-80760304D01*
X67239727Y-80728320D01*
X66978574Y-80620147D01*
X66701335Y-80565000D01*
X66418665Y-80565000D01*
X66141426Y-80620147D01*
X65880273Y-80728320D01*
X65645241Y-80885363D01*
X65445363Y-81085241D01*
X65288320Y-81320273D01*
X65180147Y-81581426D01*
X65125000Y-81858665D01*
X63120624Y-81858665D01*
X63100000Y-80636309D01*
X63100000Y-70810000D01*
X63691928Y-70810000D01*
X63704188Y-70934482D01*
X63740498Y-71054180D01*
X63799463Y-71164494D01*
X63878815Y-71261185D01*
X63975506Y-71340537D01*
X64085820Y-71399502D01*
X64158380Y-71421513D01*
X64026525Y-71553368D01*
X63864010Y-71796589D01*
X63752068Y-72066842D01*
X63695000Y-72353740D01*
X63695000Y-72646260D01*
X63752068Y-72933158D01*
X63864010Y-73203411D01*
X64026525Y-73446632D01*
X64233368Y-73653475D01*
X64407760Y-73770000D01*
X64233368Y-73886525D01*
X64026525Y-74093368D01*
X63864010Y-74336589D01*
X63752068Y-74606842D01*
X63695000Y-74893740D01*
X63695000Y-75186260D01*
X63752068Y-75473158D01*
X63864010Y-75743411D01*
X64026525Y-75986632D01*
X64233368Y-76193475D01*
X64476589Y-76355990D01*
X64746842Y-76467932D01*
X65033740Y-76525000D01*
X65326260Y-76525000D01*
X65613158Y-76467932D01*
X65883411Y-76355990D01*
X66126632Y-76193475D01*
X66333475Y-75986632D01*
X66495990Y-75743411D01*
X66607932Y-75473158D01*
X66665000Y-75186260D01*
X66665000Y-74893740D01*
X66607932Y-74606842D01*
X66599837Y-74587298D01*
X71476903Y-74587298D01*
X72290000Y-75400395D01*
X73103097Y-74587298D01*
X73031514Y-74343329D01*
X72776004Y-74222429D01*
X72501816Y-74153700D01*
X72219488Y-74139783D01*
X71939870Y-74181213D01*
X71673708Y-74276397D01*
X71548486Y-74343329D01*
X71476903Y-74587298D01*
X66599837Y-74587298D01*
X66495990Y-74336589D01*
X66333475Y-74093368D01*
X66126632Y-73886525D01*
X65952240Y-73770000D01*
X66126632Y-73653475D01*
X66333475Y-73446632D01*
X66495990Y-73203411D01*
X66607932Y-72933158D01*
X66665000Y-72646260D01*
X66665000Y-72353740D01*
X66607932Y-72066842D01*
X66495990Y-71796589D01*
X66333475Y-71553368D01*
X66201620Y-71421513D01*
X66274180Y-71399502D01*
X66384494Y-71340537D01*
X66481185Y-71261185D01*
X66560537Y-71164494D01*
X66619502Y-71054180D01*
X66655812Y-70934482D01*
X66668072Y-70810000D01*
X66665000Y-70245750D01*
X66506250Y-70087000D01*
X65307000Y-70087000D01*
X65307000Y-70107000D01*
X65053000Y-70107000D01*
X65053000Y-70087000D01*
X63853750Y-70087000D01*
X63695000Y-70245750D01*
X63691928Y-70810000D01*
X63100000Y-70810000D01*
X63100000Y-69110000D01*
X63691928Y-69110000D01*
X63695000Y-69674250D01*
X63853750Y-69833000D01*
X65053000Y-69833000D01*
X65053000Y-68633750D01*
X65307000Y-68633750D01*
X65307000Y-69833000D01*
X66506250Y-69833000D01*
X66618738Y-69720512D01*
X70809783Y-69720512D01*
X70851213Y-70000130D01*
X70946397Y-70266292D01*
X71011616Y-70388309D01*
X70998815Y-70398815D01*
X70919463Y-70495506D01*
X70860498Y-70605820D01*
X70824188Y-70725518D01*
X70811928Y-70850000D01*
X70811928Y-72450000D01*
X70824188Y-72574482D01*
X70860498Y-72694180D01*
X70919463Y-72804494D01*
X70998815Y-72901185D01*
X71095506Y-72980537D01*
X71205820Y-73039502D01*
X71325518Y-73075812D01*
X71450000Y-73088072D01*
X73050000Y-73088072D01*
X73174482Y-73075812D01*
X73294180Y-73039502D01*
X73404494Y-72980537D01*
X73501185Y-72901185D01*
X73523948Y-72873449D01*
X77131501Y-76481003D01*
X77155299Y-76510001D01*
X77184297Y-76533799D01*
X77271024Y-76604974D01*
X77403053Y-76675546D01*
X77546314Y-76719003D01*
X77695300Y-76733677D01*
X77732633Y-76730000D01*
X78391928Y-76730000D01*
X78391928Y-76922500D01*
X78404188Y-77046982D01*
X78440498Y-77166680D01*
X78499463Y-77276994D01*
X78578815Y-77373685D01*
X78675506Y-77453037D01*
X78785820Y-77512002D01*
X78905518Y-77548312D01*
X79030000Y-77560572D01*
X81030000Y-77560572D01*
X81154482Y-77548312D01*
X81274180Y-77512002D01*
X81384494Y-77453037D01*
X81481185Y-77373685D01*
X81560537Y-77276994D01*
X81619502Y-77166680D01*
X81655812Y-77046982D01*
X81668072Y-76922500D01*
X81668072Y-75017500D01*
X81655812Y-74893018D01*
X81619502Y-74773320D01*
X81560537Y-74663006D01*
X81481185Y-74566315D01*
X81384494Y-74486963D01*
X81292781Y-74437941D01*
X81405969Y-74296923D01*
X81549571Y-74021094D01*
X81620563Y-73802980D01*
X81500594Y-73557000D01*
X80157000Y-73557000D01*
X80157000Y-73577000D01*
X79903000Y-73577000D01*
X79903000Y-73557000D01*
X78559406Y-73557000D01*
X78439437Y-73802980D01*
X78510429Y-74021094D01*
X78654031Y-74296923D01*
X78767219Y-74437941D01*
X78675506Y-74486963D01*
X78578815Y-74566315D01*
X78499463Y-74663006D01*
X78440498Y-74773320D01*
X78404188Y-74893018D01*
X78391928Y-75017500D01*
X78391928Y-75210000D01*
X78010102Y-75210000D01*
X73939104Y-71139003D01*
X73915301Y-71109999D01*
X73799576Y-71015026D01*
X73688072Y-70955425D01*
X73688072Y-70890000D01*
X78387319Y-70890000D01*
X78417970Y-71201204D01*
X78508745Y-71500449D01*
X78656155Y-71776235D01*
X78854537Y-72017963D01*
X79033899Y-72165163D01*
X78848685Y-72320563D01*
X78654031Y-72563077D01*
X78510429Y-72838906D01*
X78439437Y-73057020D01*
X78559406Y-73303000D01*
X79903000Y-73303000D01*
X79903000Y-73283000D01*
X80157000Y-73283000D01*
X80157000Y-73303000D01*
X81500594Y-73303000D01*
X81620563Y-73057020D01*
X81549571Y-72838906D01*
X81405969Y-72563077D01*
X81211315Y-72320563D01*
X81026101Y-72165163D01*
X81205463Y-72017963D01*
X81403845Y-71776235D01*
X81551255Y-71500449D01*
X81642030Y-71201204D01*
X81672681Y-70890000D01*
X81642030Y-70578796D01*
X81551255Y-70279551D01*
X81439249Y-70070000D01*
X91501928Y-70070000D01*
X91501928Y-71570000D01*
X91518992Y-71743254D01*
X91569528Y-71909850D01*
X91651595Y-72063386D01*
X91762038Y-72197962D01*
X91896614Y-72308405D01*
X92050150Y-72390472D01*
X92216746Y-72441008D01*
X92390000Y-72458072D01*
X93590000Y-72458072D01*
X93763254Y-72441008D01*
X93929850Y-72390472D01*
X94083386Y-72308405D01*
X94217962Y-72197962D01*
X94328405Y-72063386D01*
X94382777Y-71961663D01*
X94434866Y-72025134D01*
X94660987Y-72210706D01*
X94918967Y-72348599D01*
X95198890Y-72433513D01*
X95490000Y-72462185D01*
X95781111Y-72433513D01*
X96061034Y-72348599D01*
X96319014Y-72210706D01*
X96545134Y-72025134D01*
X96730706Y-71799014D01*
X96868599Y-71541033D01*
X96953513Y-71261110D01*
X96975000Y-71042949D01*
X96975000Y-70597050D01*
X96953513Y-70378889D01*
X96868599Y-70098966D01*
X96730706Y-69840986D01*
X96545134Y-69614866D01*
X96319013Y-69429294D01*
X96061033Y-69291401D01*
X95781110Y-69206487D01*
X95490000Y-69177815D01*
X95198889Y-69206487D01*
X94918966Y-69291401D01*
X94660986Y-69429294D01*
X94434866Y-69614866D01*
X94382777Y-69678337D01*
X94328405Y-69576614D01*
X94217962Y-69442038D01*
X94083386Y-69331595D01*
X93929850Y-69249528D01*
X93763254Y-69198992D01*
X93590000Y-69181928D01*
X92390000Y-69181928D01*
X92216746Y-69198992D01*
X92050150Y-69249528D01*
X91896614Y-69331595D01*
X91762038Y-69442038D01*
X91651595Y-69576614D01*
X91569528Y-69730150D01*
X91518992Y-69896746D01*
X91501928Y-70070000D01*
X81439249Y-70070000D01*
X81403845Y-70003765D01*
X81205463Y-69762037D01*
X80963735Y-69563655D01*
X80687949Y-69416245D01*
X80388704Y-69325470D01*
X80155486Y-69302500D01*
X79904514Y-69302500D01*
X79671296Y-69325470D01*
X79372051Y-69416245D01*
X79096265Y-69563655D01*
X78854537Y-69762037D01*
X78656155Y-70003765D01*
X78508745Y-70279551D01*
X78417970Y-70578796D01*
X78387319Y-70890000D01*
X73688072Y-70890000D01*
X73688072Y-70850000D01*
X73675812Y-70725518D01*
X73639502Y-70605820D01*
X73580537Y-70495506D01*
X73501185Y-70398815D01*
X73488242Y-70388193D01*
X73607571Y-70136004D01*
X73676300Y-69861816D01*
X73690217Y-69579488D01*
X73648787Y-69299870D01*
X73553603Y-69033708D01*
X73486671Y-68908486D01*
X73242702Y-68836903D01*
X72429605Y-69650000D01*
X72443748Y-69664143D01*
X72264143Y-69843748D01*
X72250000Y-69829605D01*
X72235858Y-69843748D01*
X72056253Y-69664143D01*
X72070395Y-69650000D01*
X71257298Y-68836903D01*
X71013329Y-68908486D01*
X70892429Y-69163996D01*
X70823700Y-69438184D01*
X70809783Y-69720512D01*
X66618738Y-69720512D01*
X66665000Y-69674250D01*
X66668072Y-69110000D01*
X66655812Y-68985518D01*
X66619502Y-68865820D01*
X66560537Y-68755506D01*
X66481185Y-68658815D01*
X66479337Y-68657298D01*
X71436903Y-68657298D01*
X72250000Y-69470395D01*
X73063097Y-68657298D01*
X72991514Y-68413329D01*
X72736004Y-68292429D01*
X72461816Y-68223700D01*
X72179488Y-68209783D01*
X71899870Y-68251213D01*
X71633708Y-68346397D01*
X71508486Y-68413329D01*
X71436903Y-68657298D01*
X66479337Y-68657298D01*
X66384494Y-68579463D01*
X66274180Y-68520498D01*
X66154482Y-68484188D01*
X66030000Y-68471928D01*
X65465750Y-68475000D01*
X65307000Y-68633750D01*
X65053000Y-68633750D01*
X64894250Y-68475000D01*
X64330000Y-68471928D01*
X64205518Y-68484188D01*
X64085820Y-68520498D01*
X63975506Y-68579463D01*
X63878815Y-68658815D01*
X63799463Y-68755506D01*
X63740498Y-68865820D01*
X63704188Y-68985518D01*
X63691928Y-69110000D01*
X63100000Y-69110000D01*
X63100000Y-67900000D01*
X99976920Y-67900000D01*
X99907808Y-68003434D01*
G37*
%TD.AperFunction*%
%TD*%
M02*
