%TF.GenerationSoftware,KiCad,Pcbnew,(5.1.9)-1*%
%TF.CreationDate,2021-03-20T21:05:46-03:00*%
%TF.ProjectId,boto_arm,626f746f-5f61-4726-9d2e-6b696361645f,rev?*%
%TF.SameCoordinates,Original*%
%TF.FileFunction,Legend,Top*%
%TF.FilePolarity,Positive*%
%FSLAX46Y46*%
G04 Gerber Fmt 4.6, Leading zero omitted, Abs format (unit mm)*
G04 Created by KiCad (PCBNEW (5.1.9)-1) date 2021-03-20 21:05:46*
%MOMM*%
%LPD*%
G01*
G04 APERTURE LIST*
%ADD10C,0.150000*%
%ADD11C,0.120000*%
%ADD12C,0.200000*%
%ADD13C,0.127000*%
%ADD14C,0.015000*%
G04 APERTURE END LIST*
D10*
X100102380Y-97050000D02*
X100007142Y-97002380D01*
X99864285Y-97002380D01*
X99721428Y-97050000D01*
X99626190Y-97145238D01*
X99578571Y-97240476D01*
X99530952Y-97430952D01*
X99530952Y-97573809D01*
X99578571Y-97764285D01*
X99626190Y-97859523D01*
X99721428Y-97954761D01*
X99864285Y-98002380D01*
X99959523Y-98002380D01*
X100102380Y-97954761D01*
X100150000Y-97907142D01*
X100150000Y-97573809D01*
X99959523Y-97573809D01*
X101007142Y-98002380D02*
X101007142Y-97478571D01*
X100959523Y-97383333D01*
X100864285Y-97335714D01*
X100673809Y-97335714D01*
X100578571Y-97383333D01*
X101007142Y-97954761D02*
X100911904Y-98002380D01*
X100673809Y-98002380D01*
X100578571Y-97954761D01*
X100530952Y-97859523D01*
X100530952Y-97764285D01*
X100578571Y-97669047D01*
X100673809Y-97621428D01*
X100911904Y-97621428D01*
X101007142Y-97573809D01*
X101483333Y-98002380D02*
X101483333Y-97002380D01*
X101483333Y-97383333D02*
X101578571Y-97335714D01*
X101769047Y-97335714D01*
X101864285Y-97383333D01*
X101911904Y-97430952D01*
X101959523Y-97526190D01*
X101959523Y-97811904D01*
X101911904Y-97907142D01*
X101864285Y-97954761D01*
X101769047Y-98002380D01*
X101578571Y-98002380D01*
X101483333Y-97954761D01*
X102340476Y-97954761D02*
X102435714Y-98002380D01*
X102626190Y-98002380D01*
X102721428Y-97954761D01*
X102769047Y-97859523D01*
X102769047Y-97811904D01*
X102721428Y-97716666D01*
X102626190Y-97669047D01*
X102483333Y-97669047D01*
X102388095Y-97621428D01*
X102340476Y-97526190D01*
X102340476Y-97478571D01*
X102388095Y-97383333D01*
X102483333Y-97335714D01*
X102626190Y-97335714D01*
X102721428Y-97383333D01*
X66968571Y-97050000D02*
X66873333Y-97002380D01*
X66730476Y-97002380D01*
X66587619Y-97050000D01*
X66492380Y-97145238D01*
X66444761Y-97240476D01*
X66397142Y-97430952D01*
X66397142Y-97573809D01*
X66444761Y-97764285D01*
X66492380Y-97859523D01*
X66587619Y-97954761D01*
X66730476Y-98002380D01*
X66825714Y-98002380D01*
X66968571Y-97954761D01*
X67016190Y-97907142D01*
X67016190Y-97573809D01*
X66825714Y-97573809D01*
X67873333Y-98002380D02*
X67873333Y-97478571D01*
X67825714Y-97383333D01*
X67730476Y-97335714D01*
X67540000Y-97335714D01*
X67444761Y-97383333D01*
X67873333Y-97954761D02*
X67778095Y-98002380D01*
X67540000Y-98002380D01*
X67444761Y-97954761D01*
X67397142Y-97859523D01*
X67397142Y-97764285D01*
X67444761Y-97669047D01*
X67540000Y-97621428D01*
X67778095Y-97621428D01*
X67873333Y-97573809D01*
X68349523Y-98002380D02*
X68349523Y-97335714D01*
X68349523Y-97430952D02*
X68397142Y-97383333D01*
X68492380Y-97335714D01*
X68635238Y-97335714D01*
X68730476Y-97383333D01*
X68778095Y-97478571D01*
X68778095Y-98002380D01*
X68778095Y-97478571D02*
X68825714Y-97383333D01*
X68920952Y-97335714D01*
X69063809Y-97335714D01*
X69159047Y-97383333D01*
X69206666Y-97478571D01*
X69206666Y-98002380D01*
X69682857Y-98002380D02*
X69682857Y-97002380D01*
X69682857Y-97383333D02*
X69778095Y-97335714D01*
X69968571Y-97335714D01*
X70063809Y-97383333D01*
X70111428Y-97430952D01*
X70159047Y-97526190D01*
X70159047Y-97811904D01*
X70111428Y-97907142D01*
X70063809Y-97954761D01*
X69968571Y-98002380D01*
X69778095Y-98002380D01*
X69682857Y-97954761D01*
X70587619Y-98002380D02*
X70587619Y-97335714D01*
X70587619Y-97002380D02*
X70540000Y-97050000D01*
X70587619Y-97097619D01*
X70635238Y-97050000D01*
X70587619Y-97002380D01*
X70587619Y-97097619D01*
X71492380Y-98002380D02*
X71492380Y-97478571D01*
X71444761Y-97383333D01*
X71349523Y-97335714D01*
X71159047Y-97335714D01*
X71063809Y-97383333D01*
X71492380Y-97954761D02*
X71397142Y-98002380D01*
X71159047Y-98002380D01*
X71063809Y-97954761D01*
X71016190Y-97859523D01*
X71016190Y-97764285D01*
X71063809Y-97669047D01*
X71159047Y-97621428D01*
X71397142Y-97621428D01*
X71492380Y-97573809D01*
X71968571Y-98002380D02*
X71968571Y-97335714D01*
X71968571Y-97526190D02*
X72016190Y-97430952D01*
X72063809Y-97383333D01*
X72159047Y-97335714D01*
X72254285Y-97335714D01*
X72587619Y-98002380D02*
X72587619Y-97335714D01*
X72587619Y-97526190D02*
X72635238Y-97430952D01*
X72682857Y-97383333D01*
X72778095Y-97335714D01*
X72873333Y-97335714D01*
X73635238Y-98002380D02*
X73635238Y-97478571D01*
X73587619Y-97383333D01*
X73492380Y-97335714D01*
X73301904Y-97335714D01*
X73206666Y-97383333D01*
X73635238Y-97954761D02*
X73540000Y-98002380D01*
X73301904Y-98002380D01*
X73206666Y-97954761D01*
X73159047Y-97859523D01*
X73159047Y-97764285D01*
X73206666Y-97669047D01*
X73301904Y-97621428D01*
X73540000Y-97621428D01*
X73635238Y-97573809D01*
X74873333Y-98002380D02*
X74873333Y-97335714D01*
X74873333Y-97430952D02*
X74920952Y-97383333D01*
X75016190Y-97335714D01*
X75159047Y-97335714D01*
X75254285Y-97383333D01*
X75301904Y-97478571D01*
X75301904Y-98002380D01*
X75301904Y-97478571D02*
X75349523Y-97383333D01*
X75444761Y-97335714D01*
X75587619Y-97335714D01*
X75682857Y-97383333D01*
X75730476Y-97478571D01*
X75730476Y-98002380D01*
X76635238Y-98002380D02*
X76635238Y-97478571D01*
X76587619Y-97383333D01*
X76492380Y-97335714D01*
X76301904Y-97335714D01*
X76206666Y-97383333D01*
X76635238Y-97954761D02*
X76540000Y-98002380D01*
X76301904Y-98002380D01*
X76206666Y-97954761D01*
X76159047Y-97859523D01*
X76159047Y-97764285D01*
X76206666Y-97669047D01*
X76301904Y-97621428D01*
X76540000Y-97621428D01*
X76635238Y-97573809D01*
X77540000Y-98002380D02*
X77540000Y-97002380D01*
X77540000Y-97954761D02*
X77444761Y-98002380D01*
X77254285Y-98002380D01*
X77159047Y-97954761D01*
X77111428Y-97907142D01*
X77063809Y-97811904D01*
X77063809Y-97526190D01*
X77111428Y-97430952D01*
X77159047Y-97383333D01*
X77254285Y-97335714D01*
X77444761Y-97335714D01*
X77540000Y-97383333D01*
X78397142Y-97954761D02*
X78301904Y-98002380D01*
X78111428Y-98002380D01*
X78016190Y-97954761D01*
X77968571Y-97859523D01*
X77968571Y-97478571D01*
X78016190Y-97383333D01*
X78111428Y-97335714D01*
X78301904Y-97335714D01*
X78397142Y-97383333D01*
X78444761Y-97478571D01*
X78444761Y-97573809D01*
X77968571Y-97669047D01*
X79635238Y-98002380D02*
X79635238Y-97335714D01*
X79635238Y-97002380D02*
X79587619Y-97050000D01*
X79635238Y-97097619D01*
X79682857Y-97050000D01*
X79635238Y-97002380D01*
X79635238Y-97097619D01*
X80111428Y-97335714D02*
X80111428Y-98002380D01*
X80111428Y-97430952D02*
X80159047Y-97383333D01*
X80254285Y-97335714D01*
X80397142Y-97335714D01*
X80492380Y-97383333D01*
X80540000Y-97478571D01*
X80540000Y-98002380D01*
X82111428Y-97478571D02*
X82254285Y-97526190D01*
X82301904Y-97573809D01*
X82349523Y-97669047D01*
X82349523Y-97811904D01*
X82301904Y-97907142D01*
X82254285Y-97954761D01*
X82159047Y-98002380D01*
X81778095Y-98002380D01*
X81778095Y-97002380D01*
X82111428Y-97002380D01*
X82206666Y-97050000D01*
X82254285Y-97097619D01*
X82301904Y-97192857D01*
X82301904Y-97288095D01*
X82254285Y-97383333D01*
X82206666Y-97430952D01*
X82111428Y-97478571D01*
X81778095Y-97478571D01*
X82778095Y-98002380D02*
X82778095Y-97335714D01*
X82778095Y-97526190D02*
X82825714Y-97430952D01*
X82873333Y-97383333D01*
X82968571Y-97335714D01*
X83063809Y-97335714D01*
X83825714Y-98002380D02*
X83825714Y-97478571D01*
X83778095Y-97383333D01*
X83682857Y-97335714D01*
X83492380Y-97335714D01*
X83397142Y-97383333D01*
X83825714Y-97954761D02*
X83730476Y-98002380D01*
X83492380Y-98002380D01*
X83397142Y-97954761D01*
X83349523Y-97859523D01*
X83349523Y-97764285D01*
X83397142Y-97669047D01*
X83492380Y-97621428D01*
X83730476Y-97621428D01*
X83825714Y-97573809D01*
X84206666Y-97335714D02*
X84730476Y-97335714D01*
X84206666Y-98002380D01*
X84730476Y-98002380D01*
X85111428Y-98002380D02*
X85111428Y-97335714D01*
X85111428Y-97002380D02*
X85063809Y-97050000D01*
X85111428Y-97097619D01*
X85159047Y-97050000D01*
X85111428Y-97002380D01*
X85111428Y-97097619D01*
X85730476Y-98002380D02*
X85635238Y-97954761D01*
X85587619Y-97859523D01*
X85587619Y-97002380D01*
D11*
%TO.C,J2*%
X90380000Y-69110000D02*
X90380000Y-73130000D01*
X90380000Y-73130000D02*
X98100000Y-73130000D01*
X98100000Y-73130000D02*
X98100000Y-69110000D01*
X98100000Y-69110000D02*
X90380000Y-69110000D01*
X90380000Y-70820000D02*
X90880000Y-70820000D01*
X90880000Y-70820000D02*
X90880000Y-69610000D01*
X90880000Y-69610000D02*
X97600000Y-69610000D01*
X97600000Y-69610000D02*
X97600000Y-70820000D01*
X97600000Y-70820000D02*
X98100000Y-70820000D01*
X90380000Y-71630000D02*
X91380000Y-71630000D01*
X91380000Y-71630000D02*
X91380000Y-73130000D01*
X98100000Y-71630000D02*
X97100000Y-71630000D01*
X97100000Y-71630000D02*
X97100000Y-73130000D01*
X90080000Y-70930000D02*
X90080000Y-73430000D01*
X90080000Y-73430000D02*
X92580000Y-73430000D01*
%TO.C,C1*%
X74870000Y-70650000D02*
G75*
G03*
X74870000Y-70650000I-2620000J0D01*
G01*
X73290000Y-70650000D02*
X74830000Y-70650000D01*
X69670000Y-70650000D02*
X71210000Y-70650000D01*
X73290000Y-70610000D02*
X74830000Y-70610000D01*
X69670000Y-70610000D02*
X71210000Y-70610000D01*
X69671000Y-70570000D02*
X71210000Y-70570000D01*
X73290000Y-70570000D02*
X74829000Y-70570000D01*
X69672000Y-70530000D02*
X71210000Y-70530000D01*
X73290000Y-70530000D02*
X74828000Y-70530000D01*
X69674000Y-70490000D02*
X71210000Y-70490000D01*
X73290000Y-70490000D02*
X74826000Y-70490000D01*
X69677000Y-70450000D02*
X71210000Y-70450000D01*
X73290000Y-70450000D02*
X74823000Y-70450000D01*
X69681000Y-70410000D02*
X71210000Y-70410000D01*
X73290000Y-70410000D02*
X74819000Y-70410000D01*
X69685000Y-70370000D02*
X71210000Y-70370000D01*
X73290000Y-70370000D02*
X74815000Y-70370000D01*
X69689000Y-70330000D02*
X71210000Y-70330000D01*
X73290000Y-70330000D02*
X74811000Y-70330000D01*
X69694000Y-70290000D02*
X71210000Y-70290000D01*
X73290000Y-70290000D02*
X74806000Y-70290000D01*
X69700000Y-70250000D02*
X71210000Y-70250000D01*
X73290000Y-70250000D02*
X74800000Y-70250000D01*
X69707000Y-70210000D02*
X71210000Y-70210000D01*
X73290000Y-70210000D02*
X74793000Y-70210000D01*
X69714000Y-70170000D02*
X71210000Y-70170000D01*
X73290000Y-70170000D02*
X74786000Y-70170000D01*
X69722000Y-70130000D02*
X71210000Y-70130000D01*
X73290000Y-70130000D02*
X74778000Y-70130000D01*
X69730000Y-70090000D02*
X71210000Y-70090000D01*
X73290000Y-70090000D02*
X74770000Y-70090000D01*
X69739000Y-70050000D02*
X71210000Y-70050000D01*
X73290000Y-70050000D02*
X74761000Y-70050000D01*
X69749000Y-70010000D02*
X71210000Y-70010000D01*
X73290000Y-70010000D02*
X74751000Y-70010000D01*
X69759000Y-69970000D02*
X71210000Y-69970000D01*
X73290000Y-69970000D02*
X74741000Y-69970000D01*
X69770000Y-69929000D02*
X71210000Y-69929000D01*
X73290000Y-69929000D02*
X74730000Y-69929000D01*
X69782000Y-69889000D02*
X71210000Y-69889000D01*
X73290000Y-69889000D02*
X74718000Y-69889000D01*
X69795000Y-69849000D02*
X71210000Y-69849000D01*
X73290000Y-69849000D02*
X74705000Y-69849000D01*
X69808000Y-69809000D02*
X71210000Y-69809000D01*
X73290000Y-69809000D02*
X74692000Y-69809000D01*
X69822000Y-69769000D02*
X71210000Y-69769000D01*
X73290000Y-69769000D02*
X74678000Y-69769000D01*
X69836000Y-69729000D02*
X71210000Y-69729000D01*
X73290000Y-69729000D02*
X74664000Y-69729000D01*
X69852000Y-69689000D02*
X71210000Y-69689000D01*
X73290000Y-69689000D02*
X74648000Y-69689000D01*
X69868000Y-69649000D02*
X71210000Y-69649000D01*
X73290000Y-69649000D02*
X74632000Y-69649000D01*
X69885000Y-69609000D02*
X71210000Y-69609000D01*
X73290000Y-69609000D02*
X74615000Y-69609000D01*
X69902000Y-69569000D02*
X71210000Y-69569000D01*
X73290000Y-69569000D02*
X74598000Y-69569000D01*
X69921000Y-69529000D02*
X71210000Y-69529000D01*
X73290000Y-69529000D02*
X74579000Y-69529000D01*
X69940000Y-69489000D02*
X71210000Y-69489000D01*
X73290000Y-69489000D02*
X74560000Y-69489000D01*
X69960000Y-69449000D02*
X71210000Y-69449000D01*
X73290000Y-69449000D02*
X74540000Y-69449000D01*
X69982000Y-69409000D02*
X71210000Y-69409000D01*
X73290000Y-69409000D02*
X74518000Y-69409000D01*
X70003000Y-69369000D02*
X71210000Y-69369000D01*
X73290000Y-69369000D02*
X74497000Y-69369000D01*
X70026000Y-69329000D02*
X71210000Y-69329000D01*
X73290000Y-69329000D02*
X74474000Y-69329000D01*
X70050000Y-69289000D02*
X71210000Y-69289000D01*
X73290000Y-69289000D02*
X74450000Y-69289000D01*
X70075000Y-69249000D02*
X71210000Y-69249000D01*
X73290000Y-69249000D02*
X74425000Y-69249000D01*
X70101000Y-69209000D02*
X71210000Y-69209000D01*
X73290000Y-69209000D02*
X74399000Y-69209000D01*
X70128000Y-69169000D02*
X71210000Y-69169000D01*
X73290000Y-69169000D02*
X74372000Y-69169000D01*
X70155000Y-69129000D02*
X71210000Y-69129000D01*
X73290000Y-69129000D02*
X74345000Y-69129000D01*
X70185000Y-69089000D02*
X71210000Y-69089000D01*
X73290000Y-69089000D02*
X74315000Y-69089000D01*
X70215000Y-69049000D02*
X71210000Y-69049000D01*
X73290000Y-69049000D02*
X74285000Y-69049000D01*
X70246000Y-69009000D02*
X71210000Y-69009000D01*
X73290000Y-69009000D02*
X74254000Y-69009000D01*
X70279000Y-68969000D02*
X71210000Y-68969000D01*
X73290000Y-68969000D02*
X74221000Y-68969000D01*
X70313000Y-68929000D02*
X71210000Y-68929000D01*
X73290000Y-68929000D02*
X74187000Y-68929000D01*
X70349000Y-68889000D02*
X71210000Y-68889000D01*
X73290000Y-68889000D02*
X74151000Y-68889000D01*
X70386000Y-68849000D02*
X71210000Y-68849000D01*
X73290000Y-68849000D02*
X74114000Y-68849000D01*
X70424000Y-68809000D02*
X71210000Y-68809000D01*
X73290000Y-68809000D02*
X74076000Y-68809000D01*
X70465000Y-68769000D02*
X71210000Y-68769000D01*
X73290000Y-68769000D02*
X74035000Y-68769000D01*
X70507000Y-68729000D02*
X71210000Y-68729000D01*
X73290000Y-68729000D02*
X73993000Y-68729000D01*
X70551000Y-68689000D02*
X71210000Y-68689000D01*
X73290000Y-68689000D02*
X73949000Y-68689000D01*
X70597000Y-68649000D02*
X71210000Y-68649000D01*
X73290000Y-68649000D02*
X73903000Y-68649000D01*
X70645000Y-68609000D02*
X73855000Y-68609000D01*
X70696000Y-68569000D02*
X73804000Y-68569000D01*
X70750000Y-68529000D02*
X73750000Y-68529000D01*
X70807000Y-68489000D02*
X73693000Y-68489000D01*
X70867000Y-68449000D02*
X73633000Y-68449000D01*
X70931000Y-68409000D02*
X73569000Y-68409000D01*
X70999000Y-68369000D02*
X73501000Y-68369000D01*
X71072000Y-68329000D02*
X73428000Y-68329000D01*
X71152000Y-68289000D02*
X73348000Y-68289000D01*
X71239000Y-68249000D02*
X73261000Y-68249000D01*
X71335000Y-68209000D02*
X73165000Y-68209000D01*
X71445000Y-68169000D02*
X73055000Y-68169000D01*
X71573000Y-68129000D02*
X72927000Y-68129000D01*
X71732000Y-68089000D02*
X72768000Y-68089000D01*
X71966000Y-68049000D02*
X72534000Y-68049000D01*
X70775000Y-73454775D02*
X70775000Y-72954775D01*
X70525000Y-73204775D02*
X71025000Y-73204775D01*
%TO.C,C2*%
X70565000Y-79134775D02*
X71065000Y-79134775D01*
X70815000Y-79384775D02*
X70815000Y-78884775D01*
X72006000Y-73979000D02*
X72574000Y-73979000D01*
X71772000Y-74019000D02*
X72808000Y-74019000D01*
X71613000Y-74059000D02*
X72967000Y-74059000D01*
X71485000Y-74099000D02*
X73095000Y-74099000D01*
X71375000Y-74139000D02*
X73205000Y-74139000D01*
X71279000Y-74179000D02*
X73301000Y-74179000D01*
X71192000Y-74219000D02*
X73388000Y-74219000D01*
X71112000Y-74259000D02*
X73468000Y-74259000D01*
X71039000Y-74299000D02*
X73541000Y-74299000D01*
X70971000Y-74339000D02*
X73609000Y-74339000D01*
X70907000Y-74379000D02*
X73673000Y-74379000D01*
X70847000Y-74419000D02*
X73733000Y-74419000D01*
X70790000Y-74459000D02*
X73790000Y-74459000D01*
X70736000Y-74499000D02*
X73844000Y-74499000D01*
X70685000Y-74539000D02*
X73895000Y-74539000D01*
X73330000Y-74579000D02*
X73943000Y-74579000D01*
X70637000Y-74579000D02*
X71250000Y-74579000D01*
X73330000Y-74619000D02*
X73989000Y-74619000D01*
X70591000Y-74619000D02*
X71250000Y-74619000D01*
X73330000Y-74659000D02*
X74033000Y-74659000D01*
X70547000Y-74659000D02*
X71250000Y-74659000D01*
X73330000Y-74699000D02*
X74075000Y-74699000D01*
X70505000Y-74699000D02*
X71250000Y-74699000D01*
X73330000Y-74739000D02*
X74116000Y-74739000D01*
X70464000Y-74739000D02*
X71250000Y-74739000D01*
X73330000Y-74779000D02*
X74154000Y-74779000D01*
X70426000Y-74779000D02*
X71250000Y-74779000D01*
X73330000Y-74819000D02*
X74191000Y-74819000D01*
X70389000Y-74819000D02*
X71250000Y-74819000D01*
X73330000Y-74859000D02*
X74227000Y-74859000D01*
X70353000Y-74859000D02*
X71250000Y-74859000D01*
X73330000Y-74899000D02*
X74261000Y-74899000D01*
X70319000Y-74899000D02*
X71250000Y-74899000D01*
X73330000Y-74939000D02*
X74294000Y-74939000D01*
X70286000Y-74939000D02*
X71250000Y-74939000D01*
X73330000Y-74979000D02*
X74325000Y-74979000D01*
X70255000Y-74979000D02*
X71250000Y-74979000D01*
X73330000Y-75019000D02*
X74355000Y-75019000D01*
X70225000Y-75019000D02*
X71250000Y-75019000D01*
X73330000Y-75059000D02*
X74385000Y-75059000D01*
X70195000Y-75059000D02*
X71250000Y-75059000D01*
X73330000Y-75099000D02*
X74412000Y-75099000D01*
X70168000Y-75099000D02*
X71250000Y-75099000D01*
X73330000Y-75139000D02*
X74439000Y-75139000D01*
X70141000Y-75139000D02*
X71250000Y-75139000D01*
X73330000Y-75179000D02*
X74465000Y-75179000D01*
X70115000Y-75179000D02*
X71250000Y-75179000D01*
X73330000Y-75219000D02*
X74490000Y-75219000D01*
X70090000Y-75219000D02*
X71250000Y-75219000D01*
X73330000Y-75259000D02*
X74514000Y-75259000D01*
X70066000Y-75259000D02*
X71250000Y-75259000D01*
X73330000Y-75299000D02*
X74537000Y-75299000D01*
X70043000Y-75299000D02*
X71250000Y-75299000D01*
X73330000Y-75339000D02*
X74558000Y-75339000D01*
X70022000Y-75339000D02*
X71250000Y-75339000D01*
X73330000Y-75379000D02*
X74580000Y-75379000D01*
X70000000Y-75379000D02*
X71250000Y-75379000D01*
X73330000Y-75419000D02*
X74600000Y-75419000D01*
X69980000Y-75419000D02*
X71250000Y-75419000D01*
X73330000Y-75459000D02*
X74619000Y-75459000D01*
X69961000Y-75459000D02*
X71250000Y-75459000D01*
X73330000Y-75499000D02*
X74638000Y-75499000D01*
X69942000Y-75499000D02*
X71250000Y-75499000D01*
X73330000Y-75539000D02*
X74655000Y-75539000D01*
X69925000Y-75539000D02*
X71250000Y-75539000D01*
X73330000Y-75579000D02*
X74672000Y-75579000D01*
X69908000Y-75579000D02*
X71250000Y-75579000D01*
X73330000Y-75619000D02*
X74688000Y-75619000D01*
X69892000Y-75619000D02*
X71250000Y-75619000D01*
X73330000Y-75659000D02*
X74704000Y-75659000D01*
X69876000Y-75659000D02*
X71250000Y-75659000D01*
X73330000Y-75699000D02*
X74718000Y-75699000D01*
X69862000Y-75699000D02*
X71250000Y-75699000D01*
X73330000Y-75739000D02*
X74732000Y-75739000D01*
X69848000Y-75739000D02*
X71250000Y-75739000D01*
X73330000Y-75779000D02*
X74745000Y-75779000D01*
X69835000Y-75779000D02*
X71250000Y-75779000D01*
X73330000Y-75819000D02*
X74758000Y-75819000D01*
X69822000Y-75819000D02*
X71250000Y-75819000D01*
X73330000Y-75859000D02*
X74770000Y-75859000D01*
X69810000Y-75859000D02*
X71250000Y-75859000D01*
X73330000Y-75900000D02*
X74781000Y-75900000D01*
X69799000Y-75900000D02*
X71250000Y-75900000D01*
X73330000Y-75940000D02*
X74791000Y-75940000D01*
X69789000Y-75940000D02*
X71250000Y-75940000D01*
X73330000Y-75980000D02*
X74801000Y-75980000D01*
X69779000Y-75980000D02*
X71250000Y-75980000D01*
X73330000Y-76020000D02*
X74810000Y-76020000D01*
X69770000Y-76020000D02*
X71250000Y-76020000D01*
X73330000Y-76060000D02*
X74818000Y-76060000D01*
X69762000Y-76060000D02*
X71250000Y-76060000D01*
X73330000Y-76100000D02*
X74826000Y-76100000D01*
X69754000Y-76100000D02*
X71250000Y-76100000D01*
X73330000Y-76140000D02*
X74833000Y-76140000D01*
X69747000Y-76140000D02*
X71250000Y-76140000D01*
X73330000Y-76180000D02*
X74840000Y-76180000D01*
X69740000Y-76180000D02*
X71250000Y-76180000D01*
X73330000Y-76220000D02*
X74846000Y-76220000D01*
X69734000Y-76220000D02*
X71250000Y-76220000D01*
X73330000Y-76260000D02*
X74851000Y-76260000D01*
X69729000Y-76260000D02*
X71250000Y-76260000D01*
X73330000Y-76300000D02*
X74855000Y-76300000D01*
X69725000Y-76300000D02*
X71250000Y-76300000D01*
X73330000Y-76340000D02*
X74859000Y-76340000D01*
X69721000Y-76340000D02*
X71250000Y-76340000D01*
X73330000Y-76380000D02*
X74863000Y-76380000D01*
X69717000Y-76380000D02*
X71250000Y-76380000D01*
X73330000Y-76420000D02*
X74866000Y-76420000D01*
X69714000Y-76420000D02*
X71250000Y-76420000D01*
X73330000Y-76460000D02*
X74868000Y-76460000D01*
X69712000Y-76460000D02*
X71250000Y-76460000D01*
X73330000Y-76500000D02*
X74869000Y-76500000D01*
X69711000Y-76500000D02*
X71250000Y-76500000D01*
X69710000Y-76540000D02*
X71250000Y-76540000D01*
X73330000Y-76540000D02*
X74870000Y-76540000D01*
X69710000Y-76580000D02*
X71250000Y-76580000D01*
X73330000Y-76580000D02*
X74870000Y-76580000D01*
X74910000Y-76580000D02*
G75*
G03*
X74910000Y-76580000I-2620000J0D01*
G01*
%TO.C,C3*%
X103150000Y-93980000D02*
G75*
G03*
X103150000Y-93980000I-2620000J0D01*
G01*
X101570000Y-93980000D02*
X103110000Y-93980000D01*
X97950000Y-93980000D02*
X99490000Y-93980000D01*
X101570000Y-93940000D02*
X103110000Y-93940000D01*
X97950000Y-93940000D02*
X99490000Y-93940000D01*
X97951000Y-93900000D02*
X99490000Y-93900000D01*
X101570000Y-93900000D02*
X103109000Y-93900000D01*
X97952000Y-93860000D02*
X99490000Y-93860000D01*
X101570000Y-93860000D02*
X103108000Y-93860000D01*
X97954000Y-93820000D02*
X99490000Y-93820000D01*
X101570000Y-93820000D02*
X103106000Y-93820000D01*
X97957000Y-93780000D02*
X99490000Y-93780000D01*
X101570000Y-93780000D02*
X103103000Y-93780000D01*
X97961000Y-93740000D02*
X99490000Y-93740000D01*
X101570000Y-93740000D02*
X103099000Y-93740000D01*
X97965000Y-93700000D02*
X99490000Y-93700000D01*
X101570000Y-93700000D02*
X103095000Y-93700000D01*
X97969000Y-93660000D02*
X99490000Y-93660000D01*
X101570000Y-93660000D02*
X103091000Y-93660000D01*
X97974000Y-93620000D02*
X99490000Y-93620000D01*
X101570000Y-93620000D02*
X103086000Y-93620000D01*
X97980000Y-93580000D02*
X99490000Y-93580000D01*
X101570000Y-93580000D02*
X103080000Y-93580000D01*
X97987000Y-93540000D02*
X99490000Y-93540000D01*
X101570000Y-93540000D02*
X103073000Y-93540000D01*
X97994000Y-93500000D02*
X99490000Y-93500000D01*
X101570000Y-93500000D02*
X103066000Y-93500000D01*
X98002000Y-93460000D02*
X99490000Y-93460000D01*
X101570000Y-93460000D02*
X103058000Y-93460000D01*
X98010000Y-93420000D02*
X99490000Y-93420000D01*
X101570000Y-93420000D02*
X103050000Y-93420000D01*
X98019000Y-93380000D02*
X99490000Y-93380000D01*
X101570000Y-93380000D02*
X103041000Y-93380000D01*
X98029000Y-93340000D02*
X99490000Y-93340000D01*
X101570000Y-93340000D02*
X103031000Y-93340000D01*
X98039000Y-93300000D02*
X99490000Y-93300000D01*
X101570000Y-93300000D02*
X103021000Y-93300000D01*
X98050000Y-93259000D02*
X99490000Y-93259000D01*
X101570000Y-93259000D02*
X103010000Y-93259000D01*
X98062000Y-93219000D02*
X99490000Y-93219000D01*
X101570000Y-93219000D02*
X102998000Y-93219000D01*
X98075000Y-93179000D02*
X99490000Y-93179000D01*
X101570000Y-93179000D02*
X102985000Y-93179000D01*
X98088000Y-93139000D02*
X99490000Y-93139000D01*
X101570000Y-93139000D02*
X102972000Y-93139000D01*
X98102000Y-93099000D02*
X99490000Y-93099000D01*
X101570000Y-93099000D02*
X102958000Y-93099000D01*
X98116000Y-93059000D02*
X99490000Y-93059000D01*
X101570000Y-93059000D02*
X102944000Y-93059000D01*
X98132000Y-93019000D02*
X99490000Y-93019000D01*
X101570000Y-93019000D02*
X102928000Y-93019000D01*
X98148000Y-92979000D02*
X99490000Y-92979000D01*
X101570000Y-92979000D02*
X102912000Y-92979000D01*
X98165000Y-92939000D02*
X99490000Y-92939000D01*
X101570000Y-92939000D02*
X102895000Y-92939000D01*
X98182000Y-92899000D02*
X99490000Y-92899000D01*
X101570000Y-92899000D02*
X102878000Y-92899000D01*
X98201000Y-92859000D02*
X99490000Y-92859000D01*
X101570000Y-92859000D02*
X102859000Y-92859000D01*
X98220000Y-92819000D02*
X99490000Y-92819000D01*
X101570000Y-92819000D02*
X102840000Y-92819000D01*
X98240000Y-92779000D02*
X99490000Y-92779000D01*
X101570000Y-92779000D02*
X102820000Y-92779000D01*
X98262000Y-92739000D02*
X99490000Y-92739000D01*
X101570000Y-92739000D02*
X102798000Y-92739000D01*
X98283000Y-92699000D02*
X99490000Y-92699000D01*
X101570000Y-92699000D02*
X102777000Y-92699000D01*
X98306000Y-92659000D02*
X99490000Y-92659000D01*
X101570000Y-92659000D02*
X102754000Y-92659000D01*
X98330000Y-92619000D02*
X99490000Y-92619000D01*
X101570000Y-92619000D02*
X102730000Y-92619000D01*
X98355000Y-92579000D02*
X99490000Y-92579000D01*
X101570000Y-92579000D02*
X102705000Y-92579000D01*
X98381000Y-92539000D02*
X99490000Y-92539000D01*
X101570000Y-92539000D02*
X102679000Y-92539000D01*
X98408000Y-92499000D02*
X99490000Y-92499000D01*
X101570000Y-92499000D02*
X102652000Y-92499000D01*
X98435000Y-92459000D02*
X99490000Y-92459000D01*
X101570000Y-92459000D02*
X102625000Y-92459000D01*
X98465000Y-92419000D02*
X99490000Y-92419000D01*
X101570000Y-92419000D02*
X102595000Y-92419000D01*
X98495000Y-92379000D02*
X99490000Y-92379000D01*
X101570000Y-92379000D02*
X102565000Y-92379000D01*
X98526000Y-92339000D02*
X99490000Y-92339000D01*
X101570000Y-92339000D02*
X102534000Y-92339000D01*
X98559000Y-92299000D02*
X99490000Y-92299000D01*
X101570000Y-92299000D02*
X102501000Y-92299000D01*
X98593000Y-92259000D02*
X99490000Y-92259000D01*
X101570000Y-92259000D02*
X102467000Y-92259000D01*
X98629000Y-92219000D02*
X99490000Y-92219000D01*
X101570000Y-92219000D02*
X102431000Y-92219000D01*
X98666000Y-92179000D02*
X99490000Y-92179000D01*
X101570000Y-92179000D02*
X102394000Y-92179000D01*
X98704000Y-92139000D02*
X99490000Y-92139000D01*
X101570000Y-92139000D02*
X102356000Y-92139000D01*
X98745000Y-92099000D02*
X99490000Y-92099000D01*
X101570000Y-92099000D02*
X102315000Y-92099000D01*
X98787000Y-92059000D02*
X99490000Y-92059000D01*
X101570000Y-92059000D02*
X102273000Y-92059000D01*
X98831000Y-92019000D02*
X99490000Y-92019000D01*
X101570000Y-92019000D02*
X102229000Y-92019000D01*
X98877000Y-91979000D02*
X99490000Y-91979000D01*
X101570000Y-91979000D02*
X102183000Y-91979000D01*
X98925000Y-91939000D02*
X102135000Y-91939000D01*
X98976000Y-91899000D02*
X102084000Y-91899000D01*
X99030000Y-91859000D02*
X102030000Y-91859000D01*
X99087000Y-91819000D02*
X101973000Y-91819000D01*
X99147000Y-91779000D02*
X101913000Y-91779000D01*
X99211000Y-91739000D02*
X101849000Y-91739000D01*
X99279000Y-91699000D02*
X101781000Y-91699000D01*
X99352000Y-91659000D02*
X101708000Y-91659000D01*
X99432000Y-91619000D02*
X101628000Y-91619000D01*
X99519000Y-91579000D02*
X101541000Y-91579000D01*
X99615000Y-91539000D02*
X101445000Y-91539000D01*
X99725000Y-91499000D02*
X101335000Y-91499000D01*
X99853000Y-91459000D02*
X101207000Y-91459000D01*
X100012000Y-91419000D02*
X101048000Y-91419000D01*
X100246000Y-91379000D02*
X100814000Y-91379000D01*
X99055000Y-96784775D02*
X99055000Y-96284775D01*
X98805000Y-96534775D02*
X99305000Y-96534775D01*
%TO.C,C4*%
X87100000Y-88990000D02*
X84360000Y-88990000D01*
X87100000Y-83750000D02*
X84360000Y-83750000D01*
X84360000Y-83750000D02*
X84360000Y-88990000D01*
X87100000Y-83750000D02*
X87100000Y-88990000D01*
%TO.C,C5*%
X97610000Y-91170000D02*
X92370000Y-91170000D01*
X97610000Y-88430000D02*
X92370000Y-88430000D01*
X97610000Y-91170000D02*
X97610000Y-88430000D01*
X92370000Y-91170000D02*
X92370000Y-88430000D01*
%TO.C,C6*%
X69420000Y-92580000D02*
X69420000Y-95320000D01*
X64180000Y-92580000D02*
X64180000Y-95320000D01*
X64180000Y-95320000D02*
X69420000Y-95320000D01*
X64180000Y-92580000D02*
X69420000Y-92580000D01*
%TO.C,C7*%
X84190000Y-81750000D02*
X84190000Y-76510000D01*
X86930000Y-81750000D02*
X86930000Y-76510000D01*
X84190000Y-81750000D02*
X86930000Y-81750000D01*
X84190000Y-76510000D02*
X86930000Y-76510000D01*
%TO.C,J1*%
X63850000Y-71230000D02*
X66510000Y-71230000D01*
X63850000Y-71230000D02*
X63850000Y-76370000D01*
X63850000Y-76370000D02*
X66510000Y-76370000D01*
X66510000Y-71230000D02*
X66510000Y-76370000D01*
X66510000Y-68630000D02*
X66510000Y-69960000D01*
X65180000Y-68630000D02*
X66510000Y-68630000D01*
%TO.C,R1*%
X84400000Y-93330000D02*
X84400000Y-93000000D01*
X84400000Y-93000000D02*
X90940000Y-93000000D01*
X90940000Y-93000000D02*
X90940000Y-93330000D01*
X84400000Y-95410000D02*
X84400000Y-95740000D01*
X84400000Y-95740000D02*
X90940000Y-95740000D01*
X90940000Y-95740000D02*
X90940000Y-95410000D01*
%TO.C,R2*%
X80450000Y-87420000D02*
X80120000Y-87420000D01*
X80450000Y-93960000D02*
X80450000Y-87420000D01*
X80120000Y-93960000D02*
X80450000Y-93960000D01*
X77710000Y-87420000D02*
X78040000Y-87420000D01*
X77710000Y-93960000D02*
X77710000Y-87420000D01*
X78040000Y-93960000D02*
X77710000Y-93960000D01*
%TO.C,U1*%
X76760000Y-78550000D02*
X76760000Y-68310000D01*
X81401000Y-78550000D02*
X81401000Y-68310000D01*
X76760000Y-78550000D02*
X81401000Y-78550000D01*
X76760000Y-68310000D02*
X81401000Y-68310000D01*
X78270000Y-78550000D02*
X78270000Y-68310000D01*
X76760000Y-75280000D02*
X78270000Y-75280000D01*
X76760000Y-71579000D02*
X78270000Y-71579000D01*
%TO.C,U2*%
X65230000Y-86810000D02*
X65230000Y-88460000D01*
X65230000Y-88460000D02*
X75510000Y-88460000D01*
X75510000Y-88460000D02*
X75510000Y-83160000D01*
X75510000Y-83160000D02*
X65230000Y-83160000D01*
X65230000Y-83160000D02*
X65230000Y-84810000D01*
X65230000Y-84810000D02*
G75*
G02*
X65230000Y-86810000I0J-1000000D01*
G01*
D12*
%TO.C,U3*%
X91240000Y-79590000D02*
G75*
G03*
X91240000Y-79590000I-100000J0D01*
G01*
D13*
X93510000Y-79490000D02*
X97170000Y-79490000D01*
X93510000Y-84490000D02*
X97170000Y-84490000D01*
%TO.C,J2*%
D10*
X95156666Y-66272380D02*
X95156666Y-66986666D01*
X95109047Y-67129523D01*
X95013809Y-67224761D01*
X94870952Y-67272380D01*
X94775714Y-67272380D01*
X95585238Y-66367619D02*
X95632857Y-66320000D01*
X95728095Y-66272380D01*
X95966190Y-66272380D01*
X96061428Y-66320000D01*
X96109047Y-66367619D01*
X96156666Y-66462857D01*
X96156666Y-66558095D01*
X96109047Y-66700952D01*
X95537619Y-67272380D01*
X96156666Y-67272380D01*
X88418571Y-70927142D02*
X89561428Y-70927142D01*
X101418571Y-70927142D02*
X102561428Y-70927142D01*
X101990000Y-71498571D02*
X101990000Y-70355714D01*
%TO.C,C1*%
X68857142Y-70816666D02*
X68904761Y-70864285D01*
X68952380Y-71007142D01*
X68952380Y-71102380D01*
X68904761Y-71245238D01*
X68809523Y-71340476D01*
X68714285Y-71388095D01*
X68523809Y-71435714D01*
X68380952Y-71435714D01*
X68190476Y-71388095D01*
X68095238Y-71340476D01*
X68000000Y-71245238D01*
X67952380Y-71102380D01*
X67952380Y-71007142D01*
X68000000Y-70864285D01*
X68047619Y-70816666D01*
X68952380Y-69864285D02*
X68952380Y-70435714D01*
X68952380Y-70150000D02*
X67952380Y-70150000D01*
X68095238Y-70245238D01*
X68190476Y-70340476D01*
X68238095Y-70435714D01*
%TO.C,C2*%
X68897142Y-76746666D02*
X68944761Y-76794285D01*
X68992380Y-76937142D01*
X68992380Y-77032380D01*
X68944761Y-77175238D01*
X68849523Y-77270476D01*
X68754285Y-77318095D01*
X68563809Y-77365714D01*
X68420952Y-77365714D01*
X68230476Y-77318095D01*
X68135238Y-77270476D01*
X68040000Y-77175238D01*
X67992380Y-77032380D01*
X67992380Y-76937142D01*
X68040000Y-76794285D01*
X68087619Y-76746666D01*
X68087619Y-76365714D02*
X68040000Y-76318095D01*
X67992380Y-76222857D01*
X67992380Y-75984761D01*
X68040000Y-75889523D01*
X68087619Y-75841904D01*
X68182857Y-75794285D01*
X68278095Y-75794285D01*
X68420952Y-75841904D01*
X68992380Y-76413333D01*
X68992380Y-75794285D01*
%TO.C,C3*%
X97137142Y-94146666D02*
X97184761Y-94194285D01*
X97232380Y-94337142D01*
X97232380Y-94432380D01*
X97184761Y-94575238D01*
X97089523Y-94670476D01*
X96994285Y-94718095D01*
X96803809Y-94765714D01*
X96660952Y-94765714D01*
X96470476Y-94718095D01*
X96375238Y-94670476D01*
X96280000Y-94575238D01*
X96232380Y-94432380D01*
X96232380Y-94337142D01*
X96280000Y-94194285D01*
X96327619Y-94146666D01*
X96232380Y-93813333D02*
X96232380Y-93194285D01*
X96613333Y-93527619D01*
X96613333Y-93384761D01*
X96660952Y-93289523D01*
X96708571Y-93241904D01*
X96803809Y-93194285D01*
X97041904Y-93194285D01*
X97137142Y-93241904D01*
X97184761Y-93289523D01*
X97232380Y-93384761D01*
X97232380Y-93670476D01*
X97184761Y-93765714D01*
X97137142Y-93813333D01*
%TO.C,C4*%
X88587142Y-86536666D02*
X88634761Y-86584285D01*
X88682380Y-86727142D01*
X88682380Y-86822380D01*
X88634761Y-86965238D01*
X88539523Y-87060476D01*
X88444285Y-87108095D01*
X88253809Y-87155714D01*
X88110952Y-87155714D01*
X87920476Y-87108095D01*
X87825238Y-87060476D01*
X87730000Y-86965238D01*
X87682380Y-86822380D01*
X87682380Y-86727142D01*
X87730000Y-86584285D01*
X87777619Y-86536666D01*
X88015714Y-85679523D02*
X88682380Y-85679523D01*
X87634761Y-85917619D02*
X88349047Y-86155714D01*
X88349047Y-85536666D01*
%TO.C,C5*%
X94823333Y-92657142D02*
X94775714Y-92704761D01*
X94632857Y-92752380D01*
X94537619Y-92752380D01*
X94394761Y-92704761D01*
X94299523Y-92609523D01*
X94251904Y-92514285D01*
X94204285Y-92323809D01*
X94204285Y-92180952D01*
X94251904Y-91990476D01*
X94299523Y-91895238D01*
X94394761Y-91800000D01*
X94537619Y-91752380D01*
X94632857Y-91752380D01*
X94775714Y-91800000D01*
X94823333Y-91847619D01*
X95728095Y-91752380D02*
X95251904Y-91752380D01*
X95204285Y-92228571D01*
X95251904Y-92180952D01*
X95347142Y-92133333D01*
X95585238Y-92133333D01*
X95680476Y-92180952D01*
X95728095Y-92228571D01*
X95775714Y-92323809D01*
X95775714Y-92561904D01*
X95728095Y-92657142D01*
X95680476Y-92704761D01*
X95585238Y-92752380D01*
X95347142Y-92752380D01*
X95251904Y-92704761D01*
X95204285Y-92657142D01*
%TO.C,C6*%
X66633333Y-91807142D02*
X66585714Y-91854761D01*
X66442857Y-91902380D01*
X66347619Y-91902380D01*
X66204761Y-91854761D01*
X66109523Y-91759523D01*
X66061904Y-91664285D01*
X66014285Y-91473809D01*
X66014285Y-91330952D01*
X66061904Y-91140476D01*
X66109523Y-91045238D01*
X66204761Y-90950000D01*
X66347619Y-90902380D01*
X66442857Y-90902380D01*
X66585714Y-90950000D01*
X66633333Y-90997619D01*
X67490476Y-90902380D02*
X67300000Y-90902380D01*
X67204761Y-90950000D01*
X67157142Y-90997619D01*
X67061904Y-91140476D01*
X67014285Y-91330952D01*
X67014285Y-91711904D01*
X67061904Y-91807142D01*
X67109523Y-91854761D01*
X67204761Y-91902380D01*
X67395238Y-91902380D01*
X67490476Y-91854761D01*
X67538095Y-91807142D01*
X67585714Y-91711904D01*
X67585714Y-91473809D01*
X67538095Y-91378571D01*
X67490476Y-91330952D01*
X67395238Y-91283333D01*
X67204761Y-91283333D01*
X67109523Y-91330952D01*
X67061904Y-91378571D01*
X67014285Y-91473809D01*
%TO.C,C7*%
X83417142Y-79296666D02*
X83464761Y-79344285D01*
X83512380Y-79487142D01*
X83512380Y-79582380D01*
X83464761Y-79725238D01*
X83369523Y-79820476D01*
X83274285Y-79868095D01*
X83083809Y-79915714D01*
X82940952Y-79915714D01*
X82750476Y-79868095D01*
X82655238Y-79820476D01*
X82560000Y-79725238D01*
X82512380Y-79582380D01*
X82512380Y-79487142D01*
X82560000Y-79344285D01*
X82607619Y-79296666D01*
X82512380Y-78963333D02*
X82512380Y-78296666D01*
X83512380Y-78725238D01*
%TO.C,J1*%
X67112380Y-73073333D02*
X67826666Y-73073333D01*
X67969523Y-73120952D01*
X68064761Y-73216190D01*
X68112380Y-73359047D01*
X68112380Y-73454285D01*
X68112380Y-72073333D02*
X68112380Y-72644761D01*
X68112380Y-72359047D02*
X67112380Y-72359047D01*
X67255238Y-72454285D01*
X67350476Y-72549523D01*
X67398095Y-72644761D01*
%TO.C,R1*%
X87503333Y-92452380D02*
X87170000Y-91976190D01*
X86931904Y-92452380D02*
X86931904Y-91452380D01*
X87312857Y-91452380D01*
X87408095Y-91500000D01*
X87455714Y-91547619D01*
X87503333Y-91642857D01*
X87503333Y-91785714D01*
X87455714Y-91880952D01*
X87408095Y-91928571D01*
X87312857Y-91976190D01*
X86931904Y-91976190D01*
X88455714Y-92452380D02*
X87884285Y-92452380D01*
X88170000Y-92452380D02*
X88170000Y-91452380D01*
X88074761Y-91595238D01*
X87979523Y-91690476D01*
X87884285Y-91738095D01*
%TO.C,R2*%
X77162380Y-90856666D02*
X76686190Y-91190000D01*
X77162380Y-91428095D02*
X76162380Y-91428095D01*
X76162380Y-91047142D01*
X76210000Y-90951904D01*
X76257619Y-90904285D01*
X76352857Y-90856666D01*
X76495714Y-90856666D01*
X76590952Y-90904285D01*
X76638571Y-90951904D01*
X76686190Y-91047142D01*
X76686190Y-91428095D01*
X76257619Y-90475714D02*
X76210000Y-90428095D01*
X76162380Y-90332857D01*
X76162380Y-90094761D01*
X76210000Y-89999523D01*
X76257619Y-89951904D01*
X76352857Y-89904285D01*
X76448095Y-89904285D01*
X76590952Y-89951904D01*
X77162380Y-90523333D01*
X77162380Y-89904285D01*
%TO.C,U1*%
X75212380Y-74191904D02*
X76021904Y-74191904D01*
X76117142Y-74144285D01*
X76164761Y-74096666D01*
X76212380Y-74001428D01*
X76212380Y-73810952D01*
X76164761Y-73715714D01*
X76117142Y-73668095D01*
X76021904Y-73620476D01*
X75212380Y-73620476D01*
X76212380Y-72620476D02*
X76212380Y-73191904D01*
X76212380Y-72906190D02*
X75212380Y-72906190D01*
X75355238Y-73001428D01*
X75450476Y-73096666D01*
X75498095Y-73191904D01*
%TO.C,U2*%
X63682380Y-86571904D02*
X64491904Y-86571904D01*
X64587142Y-86524285D01*
X64634761Y-86476666D01*
X64682380Y-86381428D01*
X64682380Y-86190952D01*
X64634761Y-86095714D01*
X64587142Y-86048095D01*
X64491904Y-86000476D01*
X63682380Y-86000476D01*
X63777619Y-85571904D02*
X63730000Y-85524285D01*
X63682380Y-85429047D01*
X63682380Y-85190952D01*
X63730000Y-85095714D01*
X63777619Y-85048095D01*
X63872857Y-85000476D01*
X63968095Y-85000476D01*
X64110952Y-85048095D01*
X64682380Y-85619523D01*
X64682380Y-85000476D01*
%TO.C,U3*%
D14*
X93450476Y-78066904D02*
X93450476Y-78714523D01*
X93488571Y-78790714D01*
X93526666Y-78828809D01*
X93602857Y-78866904D01*
X93755238Y-78866904D01*
X93831428Y-78828809D01*
X93869523Y-78790714D01*
X93907619Y-78714523D01*
X93907619Y-78066904D01*
X94212380Y-78066904D02*
X94707619Y-78066904D01*
X94440952Y-78371666D01*
X94555238Y-78371666D01*
X94631428Y-78409761D01*
X94669523Y-78447857D01*
X94707619Y-78524047D01*
X94707619Y-78714523D01*
X94669523Y-78790714D01*
X94631428Y-78828809D01*
X94555238Y-78866904D01*
X94326666Y-78866904D01*
X94250476Y-78828809D01*
X94212380Y-78790714D01*
%TD*%
M02*
