M48
; DRILL file {KiCad (5.1.9)-1} date 03/20/21 21:06:31
; FORMAT={-:-/ absolute / inch / decimal}
; #@! TF.CreationDate,2021-03-20T21:06:31-03:00
; #@! TF.GenerationSoftware,Kicad,Pcbnew,(5.1.9)-1
; #@! TF.FileFunction,Plated,1,2,PTH
FMAT,2
INCH
T1C0.0079
T2C0.0157
T3C0.0315
T4C0.0394
T5C0.0433
%
G90
G05
T1
X3.7142Y-3.1571
X3.7142Y-3.2043
X3.7142Y-3.2516
X3.7142Y-3.2988
X3.7535Y-3.1571
X3.7535Y-3.2043
X3.7535Y-3.2516
X3.7535Y-3.2988
X3.7929Y-3.1571
X3.7929Y-3.2043
X3.7929Y-3.2516
X3.7929Y-3.2988
T2
X2.8586Y-3.2802
X3.5815Y-3.3575
X3.8439Y-3.3502
T3
X2.5807Y-3.6988
X2.6205Y-3.2283
X2.6205Y-3.5283
X2.6791Y-3.6988
X2.7205Y-3.2283
X2.7205Y-3.5283
X2.8205Y-3.2283
X2.8205Y-3.5283
X2.8445Y-2.7421
X2.8445Y-2.8209
X2.8461Y-2.9756
X2.8461Y-3.0543
X2.9205Y-3.2283
X2.9205Y-3.5283
X3.1134Y-3.4205
X3.1134Y-3.7205
X3.3016Y-3.7154
X3.3685Y-3.0661
X3.3685Y-3.1646
X3.3752Y-3.3512
X3.3752Y-3.4496
X3.6016Y-3.7154
X3.6906Y-3.5354
X3.789Y-3.5354
X3.9579Y-3.6606
X3.9579Y-3.7394
T4
X2.5661Y-2.7543
X2.5661Y-2.8543
X2.5661Y-2.9543
X3.661Y-2.7882
X3.7594Y-2.7882
T5
X3.1508Y-2.7909
X3.1508Y-2.8909
X3.1508Y-2.9909
T0
M30
