%TF.GenerationSoftware,KiCad,Pcbnew,(5.1.9)-1*%
%TF.CreationDate,2021-03-20T21:05:46-03:00*%
%TF.ProjectId,boto_arm,626f746f-5f61-4726-9d2e-6b696361645f,rev?*%
%TF.SameCoordinates,Original*%
%TF.FileFunction,Soldermask,Bot*%
%TF.FilePolarity,Negative*%
%FSLAX46Y46*%
G04 Gerber Fmt 4.6, Leading zero omitted, Abs format (unit mm)*
G04 Created by KiCad (PCBNEW (5.1.9)-1) date 2021-03-20 21:05:46*
%MOMM*%
%LPD*%
G01*
G04 APERTURE LIST*
%ADD10O,1.700000X2.000000*%
%ADD11R,1.600000X1.600000*%
%ADD12C,1.600000*%
%ADD13R,1.700000X1.700000*%
%ADD14O,1.700000X1.700000*%
%ADD15O,1.600000X1.600000*%
%ADD16R,2.000000X1.905000*%
%ADD17O,2.000000X1.905000*%
G04 APERTURE END LIST*
D10*
%TO.C,J2*%
X95490000Y-70820000D03*
G36*
G01*
X92140000Y-71570000D02*
X92140000Y-70070000D01*
G75*
G02*
X92390000Y-69820000I250000J0D01*
G01*
X93590000Y-69820000D01*
G75*
G02*
X93840000Y-70070000I0J-250000D01*
G01*
X93840000Y-71570000D01*
G75*
G02*
X93590000Y-71820000I-250000J0D01*
G01*
X92390000Y-71820000D01*
G75*
G02*
X92140000Y-71570000I0J250000D01*
G01*
G37*
%TD*%
D11*
%TO.C,C1*%
X72250000Y-71650000D03*
D12*
X72250000Y-69650000D03*
%TD*%
%TO.C,C2*%
X72290000Y-75580000D03*
D11*
X72290000Y-77580000D03*
%TD*%
%TO.C,C3*%
X100530000Y-94980000D03*
D12*
X100530000Y-92980000D03*
%TD*%
%TO.C,C4*%
X85730000Y-87620000D03*
X85730000Y-85120000D03*
%TD*%
%TO.C,C5*%
X96240000Y-89800000D03*
X93740000Y-89800000D03*
%TD*%
%TO.C,C6*%
X68050000Y-93950000D03*
X65550000Y-93950000D03*
%TD*%
%TO.C,C7*%
X85560000Y-80380000D03*
X85560000Y-77880000D03*
%TD*%
D13*
%TO.C,J1*%
X65180000Y-69960000D03*
D14*
X65180000Y-72500000D03*
X65180000Y-75040000D03*
%TD*%
D12*
%TO.C,R1*%
X83860000Y-94370000D03*
D15*
X91480000Y-94370000D03*
%TD*%
%TO.C,R2*%
X79080000Y-86880000D03*
D12*
X79080000Y-94500000D03*
%TD*%
D16*
%TO.C,U1*%
X80030000Y-75970000D03*
D17*
X80030000Y-73430000D03*
X80030000Y-70890000D03*
%TD*%
D11*
%TO.C,U2*%
X66560000Y-89620000D03*
D15*
X74180000Y-82000000D03*
X69100000Y-89620000D03*
X71640000Y-82000000D03*
X71640000Y-89620000D03*
X69100000Y-82000000D03*
X74180000Y-89620000D03*
X66560000Y-82000000D03*
%TD*%
M02*
